%TF.GenerationSoftware,KiCad,Pcbnew,7.0.9*%
%TF.CreationDate,2024-02-09T01:39:57+08:00*%
%TF.ProjectId,yeg-channel,7965672d-6368-4616-9e6e-656c2e6b6963,rev?*%
%TF.SameCoordinates,Original*%
%TF.FileFunction,Paste,Top*%
%TF.FilePolarity,Positive*%
%FSLAX46Y46*%
G04 Gerber Fmt 4.6, Leading zero omitted, Abs format (unit mm)*
G04 Created by KiCad (PCBNEW 7.0.9) date 2024-02-09 01:39:57*
%MOMM*%
%LPD*%
G01*
G04 APERTURE LIST*
G04 Aperture macros list*
%AMRoundRect*
0 Rectangle with rounded corners*
0 $1 Rounding radius*
0 $2 $3 $4 $5 $6 $7 $8 $9 X,Y pos of 4 corners*
0 Add a 4 corners polygon primitive as box body*
4,1,4,$2,$3,$4,$5,$6,$7,$8,$9,$2,$3,0*
0 Add four circle primitives for the rounded corners*
1,1,$1+$1,$2,$3*
1,1,$1+$1,$4,$5*
1,1,$1+$1,$6,$7*
1,1,$1+$1,$8,$9*
0 Add four rect primitives between the rounded corners*
20,1,$1+$1,$2,$3,$4,$5,0*
20,1,$1+$1,$4,$5,$6,$7,0*
20,1,$1+$1,$6,$7,$8,$9,0*
20,1,$1+$1,$8,$9,$2,$3,0*%
G04 Aperture macros list end*
%ADD10RoundRect,0.250000X0.450000X0.425000X-0.450000X0.425000X-0.450000X-0.425000X0.450000X-0.425000X0*%
%ADD11RoundRect,0.225000X0.250000X-0.225000X0.250000X0.225000X-0.250000X0.225000X-0.250000X-0.225000X0*%
%ADD12RoundRect,0.200000X0.200000X0.275000X-0.200000X0.275000X-0.200000X-0.275000X0.200000X-0.275000X0*%
%ADD13RoundRect,0.200000X-0.200000X-0.275000X0.200000X-0.275000X0.200000X0.275000X-0.200000X0.275000X0*%
%ADD14RoundRect,0.225000X-0.225000X-0.250000X0.225000X-0.250000X0.225000X0.250000X-0.225000X0.250000X0*%
%ADD15RoundRect,0.200000X-0.275000X0.200000X-0.275000X-0.200000X0.275000X-0.200000X0.275000X0.200000X0*%
%ADD16RoundRect,0.162500X0.162500X-0.825000X0.162500X0.825000X-0.162500X0.825000X-0.162500X-0.825000X0*%
%ADD17RoundRect,0.225000X0.225000X0.250000X-0.225000X0.250000X-0.225000X-0.250000X0.225000X-0.250000X0*%
%ADD18RoundRect,0.218750X0.218750X0.256250X-0.218750X0.256250X-0.218750X-0.256250X0.218750X-0.256250X0*%
%ADD19RoundRect,0.100000X0.637500X0.100000X-0.637500X0.100000X-0.637500X-0.100000X0.637500X-0.100000X0*%
%ADD20RoundRect,0.150000X0.150000X-0.825000X0.150000X0.825000X-0.150000X0.825000X-0.150000X-0.825000X0*%
%ADD21RoundRect,0.225000X-0.250000X0.225000X-0.250000X-0.225000X0.250000X-0.225000X0.250000X0.225000X0*%
%ADD22RoundRect,0.200000X0.275000X-0.200000X0.275000X0.200000X-0.275000X0.200000X-0.275000X-0.200000X0*%
%ADD23R,1.700000X0.900000*%
%ADD24RoundRect,0.100000X0.100000X-0.637500X0.100000X0.637500X-0.100000X0.637500X-0.100000X-0.637500X0*%
%ADD25RoundRect,0.218750X0.256250X-0.218750X0.256250X0.218750X-0.256250X0.218750X-0.256250X-0.218750X0*%
%ADD26R,1.000000X1.800000*%
%ADD27RoundRect,0.150000X0.150000X-0.512500X0.150000X0.512500X-0.150000X0.512500X-0.150000X-0.512500X0*%
%ADD28RoundRect,0.250000X-0.650000X1.000000X-0.650000X-1.000000X0.650000X-1.000000X0.650000X1.000000X0*%
%ADD29RoundRect,0.075000X-0.662500X-0.075000X0.662500X-0.075000X0.662500X0.075000X-0.662500X0.075000X0*%
%ADD30RoundRect,0.075000X-0.075000X-0.662500X0.075000X-0.662500X0.075000X0.662500X-0.075000X0.662500X0*%
%ADD31RoundRect,0.218750X-0.218750X-0.256250X0.218750X-0.256250X0.218750X0.256250X-0.218750X0.256250X0*%
%ADD32R,1.500000X2.000000*%
%ADD33R,3.800000X2.000000*%
%ADD34R,2.400000X3.500000*%
%ADD35R,3.150000X1.000000*%
G04 APERTURE END LIST*
D10*
%TO.C,C5*%
X114826552Y-40047052D03*
X112126552Y-40047052D03*
%TD*%
D11*
%TO.C,C26*%
X75964552Y-80570552D03*
X75964552Y-79020552D03*
%TD*%
D12*
%TO.C,R17*%
X89452052Y-63415052D03*
X87802052Y-63415052D03*
%TD*%
D10*
%TO.C,C7*%
X114873552Y-46778052D03*
X112173552Y-46778052D03*
%TD*%
D13*
%TO.C,R6*%
X78060552Y-60303052D03*
X79710552Y-60303052D03*
%TD*%
D14*
%TO.C,C15*%
X90302552Y-54144052D03*
X91852552Y-54144052D03*
%TD*%
D15*
%TO.C,R14*%
X66058552Y-46334052D03*
X66058552Y-47984052D03*
%TD*%
D14*
%TO.C,C14*%
X90810552Y-45635052D03*
X92360552Y-45635052D03*
%TD*%
D12*
%TO.C,R1*%
X121442552Y-68557052D03*
X119792552Y-68557052D03*
%TD*%
D10*
%TO.C,C1*%
X102446552Y-39945052D03*
X99746552Y-39945052D03*
%TD*%
D16*
%TO.C,U8*%
X77615552Y-80049552D03*
X78885552Y-80049552D03*
X80155552Y-80049552D03*
X81425552Y-80049552D03*
X81425552Y-74974552D03*
X80155552Y-74974552D03*
X78885552Y-74974552D03*
X77615552Y-74974552D03*
%TD*%
%TO.C,U7*%
X67836552Y-80047052D03*
X69106552Y-80047052D03*
X70376552Y-80047052D03*
X71646552Y-80047052D03*
X71646552Y-74972052D03*
X70376552Y-74972052D03*
X69106552Y-74972052D03*
X67836552Y-74972052D03*
%TD*%
D17*
%TO.C,C6*%
X115060552Y-41952052D03*
X113510552Y-41952052D03*
%TD*%
D18*
%TO.C,D10*%
X128676500Y-74168000D03*
X127101500Y-74168000D03*
%TD*%
D19*
%TO.C,U5*%
X111847052Y-54133052D03*
X111847052Y-53483052D03*
X111847052Y-52833052D03*
X111847052Y-52183052D03*
X111847052Y-51533052D03*
X111847052Y-50883052D03*
X111847052Y-50233052D03*
X111847052Y-49583052D03*
X106122052Y-49583052D03*
X106122052Y-50233052D03*
X106122052Y-50883052D03*
X106122052Y-51533052D03*
X106122052Y-52183052D03*
X106122052Y-52833052D03*
X106122052Y-53483052D03*
X106122052Y-54133052D03*
%TD*%
D17*
%TO.C,C8*%
X115060552Y-44873052D03*
X113510552Y-44873052D03*
%TD*%
D15*
%TO.C,R3*%
X92728552Y-82021052D03*
X92728552Y-83671052D03*
%TD*%
D11*
%TO.C,C37*%
X87267552Y-83621052D03*
X87267552Y-82071052D03*
%TD*%
%TO.C,C49*%
X122491500Y-78829500D03*
X122491500Y-77279500D03*
%TD*%
D14*
%TO.C,C44*%
X105923552Y-55414052D03*
X107473552Y-55414052D03*
%TD*%
D16*
%TO.C,U9*%
X87394552Y-80049552D03*
X88664552Y-80049552D03*
X89934552Y-80049552D03*
X91204552Y-80049552D03*
X91204552Y-74974552D03*
X89934552Y-74974552D03*
X88664552Y-74974552D03*
X87394552Y-74974552D03*
%TD*%
D13*
%TO.C,R4*%
X74504552Y-60303052D03*
X76154552Y-60303052D03*
%TD*%
D20*
%TO.C,U4*%
X115982552Y-66460052D03*
X117252552Y-66460052D03*
X118522552Y-66460052D03*
X119792552Y-66460052D03*
X119792552Y-61510052D03*
X118522552Y-61510052D03*
X117252552Y-61510052D03*
X115982552Y-61510052D03*
%TD*%
D10*
%TO.C,C10*%
X120380552Y-70462052D03*
X117680552Y-70462052D03*
%TD*%
D21*
%TO.C,C50*%
X79647552Y-53623052D03*
X79647552Y-55173052D03*
%TD*%
D11*
%TO.C,C31*%
X85743552Y-83634052D03*
X85743552Y-82084052D03*
%TD*%
D15*
%TO.C,R15*%
X96792552Y-46054552D03*
X96792552Y-47704552D03*
%TD*%
%TO.C,R16*%
X112921552Y-66781052D03*
X112921552Y-68431052D03*
%TD*%
D21*
%TO.C,C21*%
X85743552Y-74464052D03*
X85743552Y-76014052D03*
%TD*%
%TO.C,C41*%
X65042552Y-61370052D03*
X65042552Y-62920052D03*
%TD*%
%TO.C,C17*%
X66185552Y-74448552D03*
X66185552Y-75998552D03*
%TD*%
D13*
%TO.C,R10*%
X85045552Y-60303052D03*
X86695552Y-60303052D03*
%TD*%
D18*
%TO.C,D9*%
X128803500Y-82042000D03*
X127228500Y-82042000D03*
%TD*%
D22*
%TO.C,R5*%
X73279000Y-74993000D03*
X73279000Y-73343000D03*
%TD*%
D14*
%TO.C,C20*%
X77475552Y-72937552D03*
X79025552Y-72937552D03*
%TD*%
D23*
%TO.C,SW1*%
X67582552Y-59859052D03*
X67582552Y-56459052D03*
%TD*%
D22*
%TO.C,R7*%
X83058000Y-74929000D03*
X83058000Y-73279000D03*
%TD*%
D11*
%TO.C,C32*%
X95522552Y-83631552D03*
X95522552Y-82081552D03*
%TD*%
D24*
%TO.C,U11*%
X66334552Y-67352052D03*
X66984552Y-67352052D03*
X67634552Y-67352052D03*
X68284552Y-67352052D03*
X68934552Y-67352052D03*
X69584552Y-67352052D03*
X70234552Y-67352052D03*
X70884552Y-67352052D03*
X70884552Y-61627052D03*
X70234552Y-61627052D03*
X69584552Y-61627052D03*
X68934552Y-61627052D03*
X68284552Y-61627052D03*
X67634552Y-61627052D03*
X66984552Y-61627052D03*
X66334552Y-61627052D03*
%TD*%
D25*
%TO.C,D12*%
X125476000Y-84226500D03*
X125476000Y-82651500D03*
%TD*%
D11*
%TO.C,C33*%
X69106552Y-83605552D03*
X69106552Y-82055552D03*
%TD*%
D17*
%TO.C,C2*%
X102519552Y-41850052D03*
X100969552Y-41850052D03*
%TD*%
D12*
%TO.C,R12*%
X125602500Y-79324500D03*
X123952500Y-79324500D03*
%TD*%
D26*
%TO.C,Y1*%
X77963552Y-40047052D03*
X75463552Y-40047052D03*
%TD*%
D27*
%TO.C,U3*%
X116495552Y-55530052D03*
X117445552Y-55530052D03*
X118395552Y-55530052D03*
X118395552Y-53255052D03*
X117445552Y-53255052D03*
X116495552Y-53255052D03*
%TD*%
D12*
%TO.C,R18*%
X65042552Y-49904052D03*
X63392552Y-49904052D03*
%TD*%
D21*
%TO.C,C42*%
X64915552Y-66056052D03*
X64915552Y-67606052D03*
%TD*%
D11*
%TO.C,C36*%
X79012552Y-83618552D03*
X79012552Y-82068552D03*
%TD*%
D23*
%TO.C,SW3*%
X64153552Y-51506052D03*
X64153552Y-54906052D03*
%TD*%
D17*
%TO.C,C4*%
X102633552Y-44771052D03*
X101083552Y-44771052D03*
%TD*%
D12*
%TO.C,R2*%
X118458552Y-68557052D03*
X116808552Y-68557052D03*
%TD*%
D14*
%TO.C,C51*%
X67683552Y-43222052D03*
X69233552Y-43222052D03*
%TD*%
D28*
%TO.C,D2*%
X77996552Y-62685052D03*
X77996552Y-66685052D03*
%TD*%
D11*
%TO.C,C39*%
X97046552Y-83618552D03*
X97046552Y-82068552D03*
%TD*%
D23*
%TO.C,SW2*%
X67582552Y-51506052D03*
X67582552Y-54906052D03*
%TD*%
D10*
%TO.C,C9*%
X120587552Y-59159052D03*
X117887552Y-59159052D03*
%TD*%
%TO.C,C3*%
X102446552Y-46676052D03*
X99746552Y-46676052D03*
%TD*%
D28*
%TO.C,D1*%
X74440552Y-62653052D03*
X74440552Y-66653052D03*
%TD*%
D11*
%TO.C,C28*%
X95522552Y-80570552D03*
X95522552Y-79020552D03*
%TD*%
D12*
%TO.C,R13*%
X125539500Y-76911500D03*
X123889500Y-76911500D03*
%TD*%
D25*
%TO.C,D5*%
X66058552Y-44861052D03*
X66058552Y-43286052D03*
%TD*%
D14*
%TO.C,C43*%
X68699552Y-69130052D03*
X70249552Y-69130052D03*
%TD*%
%TO.C,C22*%
X87254552Y-72940052D03*
X88804552Y-72940052D03*
%TD*%
D29*
%TO.C,U6*%
X82117552Y-46842052D03*
X82117552Y-47342052D03*
X82117552Y-47842052D03*
X82117552Y-48342052D03*
X82117552Y-48842052D03*
X82117552Y-49342052D03*
X82117552Y-49842052D03*
X82117552Y-50342052D03*
X82117552Y-50842052D03*
X82117552Y-51342052D03*
X82117552Y-51842052D03*
X82117552Y-52342052D03*
D30*
X83530052Y-53754552D03*
X84030052Y-53754552D03*
X84530052Y-53754552D03*
X85030052Y-53754552D03*
X85530052Y-53754552D03*
X86030052Y-53754552D03*
X86530052Y-53754552D03*
X87030052Y-53754552D03*
X87530052Y-53754552D03*
X88030052Y-53754552D03*
X88530052Y-53754552D03*
X89030052Y-53754552D03*
D29*
X90442552Y-52342052D03*
X90442552Y-51842052D03*
X90442552Y-51342052D03*
X90442552Y-50842052D03*
X90442552Y-50342052D03*
X90442552Y-49842052D03*
X90442552Y-49342052D03*
X90442552Y-48842052D03*
X90442552Y-48342052D03*
X90442552Y-47842052D03*
X90442552Y-47342052D03*
X90442552Y-46842052D03*
D30*
X89030052Y-45429552D03*
X88530052Y-45429552D03*
X88030052Y-45429552D03*
X87530052Y-45429552D03*
X87030052Y-45429552D03*
X86530052Y-45429552D03*
X86030052Y-45429552D03*
X85530052Y-45429552D03*
X85030052Y-45429552D03*
X84530052Y-45429552D03*
X84030052Y-45429552D03*
X83530052Y-45429552D03*
%TD*%
D22*
%TO.C,R11*%
X102616000Y-74993000D03*
X102616000Y-73343000D03*
%TD*%
D21*
%TO.C,C47*%
X75329552Y-47159052D03*
X75329552Y-48709052D03*
%TD*%
D11*
%TO.C,C25*%
X66185552Y-80570552D03*
X66185552Y-79020552D03*
%TD*%
%TO.C,C29*%
X66058552Y-83618552D03*
X66058552Y-82068552D03*
%TD*%
D21*
%TO.C,C11*%
X114966552Y-53102052D03*
X114966552Y-54652052D03*
%TD*%
D17*
%TO.C,C12*%
X118040552Y-57319052D03*
X116490552Y-57319052D03*
%TD*%
D11*
%TO.C,C34*%
X67582552Y-83605552D03*
X67582552Y-82055552D03*
%TD*%
D25*
%TO.C,D6*%
X96792552Y-44492052D03*
X96792552Y-42917052D03*
%TD*%
D31*
%TO.C,D8*%
X90950552Y-63415052D03*
X92525552Y-63415052D03*
%TD*%
D28*
%TO.C,D4*%
X85108552Y-62653052D03*
X85108552Y-66653052D03*
%TD*%
D17*
%TO.C,C45*%
X79647552Y-42079052D03*
X78097552Y-42079052D03*
%TD*%
D21*
%TO.C,C48*%
X75311000Y-50152000D03*
X75311000Y-51702000D03*
%TD*%
D11*
%TO.C,C35*%
X77488552Y-83618552D03*
X77488552Y-82068552D03*
%TD*%
D32*
%TO.C,U2*%
X121806552Y-40301052D03*
X119506552Y-40301052D03*
D33*
X119506552Y-46601052D03*
D32*
X117206552Y-40301052D03*
%TD*%
D11*
%TO.C,C27*%
X85743552Y-80560052D03*
X85743552Y-79010052D03*
%TD*%
D28*
%TO.C,D3*%
X81552552Y-62653052D03*
X81552552Y-66653052D03*
%TD*%
D14*
%TO.C,C18*%
X67696552Y-72937552D03*
X69246552Y-72937552D03*
%TD*%
D17*
%TO.C,C13*%
X118395552Y-51477052D03*
X116845552Y-51477052D03*
%TD*%
D11*
%TO.C,C16*%
X81679552Y-45534052D03*
X81679552Y-43984052D03*
%TD*%
D34*
%TO.C,Y2*%
X72535552Y-48817052D03*
X72535552Y-54017052D03*
%TD*%
D22*
%TO.C,R9*%
X92837000Y-74929000D03*
X92837000Y-73279000D03*
%TD*%
D21*
%TO.C,C19*%
X75964552Y-74435552D03*
X75964552Y-75985552D03*
%TD*%
D16*
%TO.C,U10*%
X97173552Y-80047052D03*
X98443552Y-80047052D03*
X99713552Y-80047052D03*
X100983552Y-80047052D03*
X100983552Y-74972052D03*
X99713552Y-74972052D03*
X98443552Y-74972052D03*
X97173552Y-74972052D03*
%TD*%
D11*
%TO.C,C30*%
X75964552Y-83618552D03*
X75964552Y-82068552D03*
%TD*%
D32*
%TO.C,U1*%
X109379552Y-40199052D03*
X107079552Y-40199052D03*
D33*
X107079552Y-46499052D03*
D32*
X104779552Y-40199052D03*
%TD*%
D35*
%TO.C,J4*%
X101080552Y-58462052D03*
X96030552Y-58462052D03*
X101080552Y-55922052D03*
X96030552Y-55922052D03*
X101080552Y-53382052D03*
X96030552Y-53382052D03*
X101080552Y-50842052D03*
X96030552Y-50842052D03*
%TD*%
D11*
%TO.C,C40*%
X98559552Y-83618552D03*
X98559552Y-82068552D03*
%TD*%
D25*
%TO.C,D7*%
X112921552Y-65218552D03*
X112921552Y-63643552D03*
%TD*%
D11*
%TO.C,C38*%
X88791552Y-83621052D03*
X88791552Y-82071052D03*
%TD*%
D17*
%TO.C,C46*%
X75456552Y-42079052D03*
X73906552Y-42079052D03*
%TD*%
D21*
%TO.C,C23*%
X95522552Y-74448552D03*
X95522552Y-75998552D03*
%TD*%
D13*
%TO.C,R19*%
X66884552Y-49953052D03*
X68534552Y-49953052D03*
%TD*%
D14*
%TO.C,C24*%
X97033552Y-72937552D03*
X98583552Y-72937552D03*
%TD*%
D13*
%TO.C,R8*%
X81616552Y-60303052D03*
X83266552Y-60303052D03*
%TD*%
M02*
