%TF.GenerationSoftware,KiCad,Pcbnew,7.0.9*%
%TF.CreationDate,2024-02-09T01:39:57+08:00*%
%TF.ProjectId,yeg-channel,7965672d-6368-4616-9e6e-656c2e6b6963,rev?*%
%TF.SameCoordinates,Original*%
%TF.FileFunction,Copper,L2,Bot*%
%TF.FilePolarity,Positive*%
%FSLAX46Y46*%
G04 Gerber Fmt 4.6, Leading zero omitted, Abs format (unit mm)*
G04 Created by KiCad (PCBNEW 7.0.9) date 2024-02-09 01:39:57*
%MOMM*%
%LPD*%
G01*
G04 APERTURE LIST*
%TA.AperFunction,ComponentPad*%
%ADD10O,1.700000X1.700000*%
%TD*%
%TA.AperFunction,ComponentPad*%
%ADD11R,1.700000X1.700000*%
%TD*%
%TA.AperFunction,ComponentPad*%
%ADD12C,3.600000*%
%TD*%
%TA.AperFunction,ConnectorPad*%
%ADD13C,6.400000*%
%TD*%
%TA.AperFunction,SMDPad,CuDef*%
%ADD14R,3.000000X1.000000*%
%TD*%
%TA.AperFunction,ViaPad*%
%ADD15C,0.800000*%
%TD*%
%TA.AperFunction,Conductor*%
%ADD16C,0.250000*%
%TD*%
%TA.AperFunction,Conductor*%
%ADD17C,0.200000*%
%TD*%
G04 APERTURE END LIST*
D10*
%TO.P,J2,6,Pin_6*%
%TO.N,+5V*%
X96520000Y-40132000D03*
%TO.P,J2,5,Pin_5*%
%TO.N,/Connector/UART1_TX*%
X93980000Y-40132000D03*
%TO.P,J2,4,Pin_4*%
%TO.N,/Connector/UART1_RX*%
X91440000Y-40132000D03*
%TO.P,J2,3,Pin_3*%
%TO.N,/Connector/SWDIO*%
X88900000Y-40132000D03*
%TO.P,J2,2,Pin_2*%
%TO.N,/Connector/SWDCLK*%
X86360000Y-40132000D03*
D11*
%TO.P,J2,1,Pin_1*%
%TO.N,GND*%
X83820000Y-40132000D03*
%TD*%
D12*
%TO.P,H6,1,1*%
%TO.N,+5V*%
X61525000Y-40640000D03*
D13*
X61525000Y-40640000D03*
%TD*%
D12*
%TO.P,H2,1,1*%
%TO.N,GND*%
X61525000Y-82809000D03*
D13*
X61525000Y-82809000D03*
%TD*%
D12*
%TO.P,H4,1,1*%
%TO.N,GND*%
X127635000Y-40640000D03*
D13*
X127635000Y-40640000D03*
%TD*%
D11*
%TO.P,J1,1,Pin_1*%
%TO.N,/ADC/CINA-*%
X128270000Y-76835000D03*
D10*
%TO.P,J1,2,Pin_2*%
%TO.N,/ADC/SRB2*%
X128270000Y-79375000D03*
%TD*%
D13*
%TO.P,H1,1,1*%
%TO.N,/ADC/SRB2*%
X117475000Y-82550000D03*
D12*
X117475000Y-82550000D03*
%TD*%
%TO.P,H3,1,1*%
%TO.N,GND*%
X127635000Y-66040000D03*
D13*
X127635000Y-66040000D03*
%TD*%
D14*
%TO.P,J3,1,Pin_1*%
%TO.N,/Connector/RCLK*%
X101060552Y-58462052D03*
%TO.P,J3,2,Pin_2*%
%TO.N,/Connector/~{OE}*%
X96020552Y-58462052D03*
%TO.P,J3,3,Pin_3*%
%TO.N,/Connector/SRCLK*%
X101060552Y-55922052D03*
%TO.P,J3,4,Pin_4*%
%TO.N,/Connector/SPI_SCK*%
X96020552Y-55922052D03*
%TO.P,J3,5,Pin_5*%
%TO.N,/Connector/~{SRCLR}*%
X101060552Y-53382052D03*
%TO.P,J3,6,Pin_6*%
%TO.N,/Connector/SPI_MISO*%
X96020552Y-53382052D03*
%TO.P,J3,7,Pin_7*%
%TO.N,/Connector/CS_IN*%
X101060552Y-50842052D03*
%TO.P,J3,8,Pin_8*%
%TO.N,/Connector/SPI_MOSI*%
X96020552Y-50842052D03*
%TD*%
D15*
%TO.N,GND*%
X105283000Y-48387000D03*
X98171000Y-39370000D03*
X77869552Y-50461052D03*
X86487000Y-71374000D03*
X105791000Y-74676000D03*
X112649000Y-73787000D03*
X82042000Y-82931000D03*
X69342000Y-71501000D03*
X76581000Y-69342000D03*
X80917552Y-42079052D03*
X80536552Y-38904052D03*
X77742552Y-48048052D03*
X73660000Y-81788000D03*
X79756000Y-64262000D03*
X67056000Y-65151000D03*
X75329552Y-45889052D03*
X84201000Y-43688000D03*
X78289000Y-71760000D03*
X73660000Y-83947000D03*
X122047000Y-70485000D03*
X115443000Y-51816000D03*
X73043552Y-39031052D03*
X89027000Y-57277000D03*
X75583552Y-44492052D03*
X71265552Y-46270052D03*
X93980000Y-84963000D03*
X76708000Y-56515000D03*
X86614000Y-64262000D03*
X75329552Y-53001052D03*
X91059000Y-82804000D03*
X78885552Y-44365052D03*
X72535552Y-42079052D03*
X79629000Y-50927000D03*
X82804000Y-79629000D03*
X83693000Y-83820000D03*
X88646000Y-47879000D03*
X76200000Y-66929000D03*
X97593000Y-71760000D03*
X92075000Y-56642000D03*
X113792000Y-57404000D03*
X76200000Y-64262000D03*
X73914000Y-70612000D03*
X65786000Y-52578000D03*
X71011552Y-56557052D03*
X73152000Y-80010000D03*
X69088000Y-51054000D03*
X92710000Y-79375000D03*
X83439000Y-64262000D03*
X122047000Y-59182000D03*
X93980000Y-80645000D03*
%TO.N,+3V3*%
X69850000Y-48387000D03*
X89662000Y-42926000D03*
%TO.N,-2V5*%
X78359000Y-70104000D03*
X92964000Y-72009000D03*
X112903000Y-69723000D03*
X67056000Y-70612000D03*
X71247000Y-82042000D03*
X84836000Y-70866000D03*
X110744000Y-69723000D03*
%TO.N,/ADC/IN+*%
X91204552Y-78528052D03*
X71646552Y-78528052D03*
X121088000Y-78872000D03*
X100983552Y-78528052D03*
X81425552Y-78528052D03*
%TO.N,/ADC/IN-*%
X70376552Y-77258052D03*
X89934552Y-77258052D03*
X99713552Y-77258052D03*
X80155552Y-77258052D03*
X121088000Y-77221000D03*
%TO.N,/Connector/CS_IN*%
X102888552Y-60113052D03*
%TO.N,/Connector/~{OE}*%
X98570552Y-58462052D03*
%TO.N,/Connector/SRCLK*%
X100203000Y-57277000D03*
%TO.N,/Connector/SPI_SCK*%
X98570552Y-55922052D03*
%TO.N,/Connector/~{SRCLR}*%
X100203000Y-54737000D03*
%TO.N,/Connector/SPI_MISO*%
X98570552Y-53382052D03*
%TO.N,/Connector/RCLK*%
X98552000Y-59563000D03*
%TO.N,/Connector/SPI_MOSI*%
X98570552Y-50842052D03*
%TO.N,/ADC/PD_SCK0*%
X68072000Y-64008000D03*
X72390000Y-71501000D03*
%TO.N,/ADC/PD_SCK1*%
X81407000Y-70866000D03*
X67056000Y-64008000D03*
%TO.N,/ADC/PD_SCK2*%
X65151000Y-64516000D03*
X90551000Y-70739000D03*
%TO.N,/Connector/BOOT1*%
X63246000Y-56642000D03*
X87503000Y-56642000D03*
%TD*%
D16*
%TO.N,+3V3*%
X87725000Y-40989000D02*
X89662000Y-42926000D01*
X86152753Y-38073052D02*
X87725000Y-39645299D01*
X69850000Y-48387000D02*
X69850000Y-41199299D01*
X69850000Y-41199299D02*
X72976247Y-38073052D01*
X72976247Y-38073052D02*
X86152753Y-38073052D01*
X87725000Y-39645299D02*
X87725000Y-40989000D01*
%TO.N,GND*%
X84535695Y-71591000D02*
X82286695Y-69342000D01*
X80917552Y-42079052D02*
X80917552Y-43349052D01*
X86487000Y-71374000D02*
X86270000Y-71591000D01*
X80917552Y-43349052D02*
X79901552Y-44365052D01*
X80917552Y-42079052D02*
X80917552Y-39285052D01*
X80917552Y-39285052D02*
X80536552Y-38904052D01*
X80155552Y-38523052D02*
X74567552Y-38523052D01*
X73152000Y-80010000D02*
X73152000Y-81280000D01*
X73152000Y-81280000D02*
X73660000Y-81788000D01*
X71265552Y-46270052D02*
X71265552Y-46397052D01*
X77869552Y-52239052D02*
X77869552Y-50461052D01*
X80536552Y-38904052D02*
X80155552Y-38523052D01*
X82286695Y-69342000D02*
X76581000Y-69342000D01*
X77107552Y-53001052D02*
X77869552Y-52239052D01*
X71392552Y-46270052D02*
X71265552Y-46270052D01*
X73170552Y-43603052D02*
X74059552Y-44492052D01*
X75329552Y-53001052D02*
X77107552Y-53001052D01*
X71011552Y-56557052D02*
X71138552Y-56557052D01*
X75329552Y-45889052D02*
X76599552Y-45889052D01*
X72535552Y-42968052D02*
X73170552Y-43603052D01*
X71265552Y-46397052D02*
X70630552Y-47032052D01*
X75456552Y-53128052D02*
X75329552Y-53001052D01*
X75329552Y-45889052D02*
X71773552Y-45889052D01*
X74567552Y-38523052D02*
X73551552Y-38523052D01*
X73043552Y-39031052D02*
X72535552Y-39539052D01*
X74059552Y-44492052D02*
X75583552Y-44492052D01*
X79901552Y-44365052D02*
X78885552Y-44365052D01*
X74694552Y-56811052D02*
X75456552Y-56049052D01*
X76599552Y-45889052D02*
X77742552Y-47032052D01*
X77742552Y-48048052D02*
X77742552Y-47921052D01*
X73551552Y-38523052D02*
X73043552Y-39031052D01*
X71138552Y-56557052D02*
X71392552Y-56811052D01*
X72535552Y-42079052D02*
X72535552Y-42968052D01*
X71773552Y-45889052D02*
X71392552Y-46270052D01*
X86270000Y-71591000D02*
X84535695Y-71591000D01*
X71011552Y-56430052D02*
X71011552Y-56557052D01*
X75456552Y-56049052D02*
X75456552Y-53128052D01*
X71392552Y-56811052D02*
X74694552Y-56811052D01*
X72535552Y-39539052D02*
X72535552Y-42079052D01*
X70630552Y-47032052D02*
X70630552Y-56049052D01*
X77742552Y-47032052D02*
X77742552Y-48048052D01*
X70630552Y-56049052D02*
X71011552Y-56430052D01*
%TO.N,+3V3*%
X89662000Y-42926000D02*
X89535000Y-42926000D01*
%TO.N,-2V5*%
X76317695Y-68580000D02*
X82550000Y-68580000D01*
X67056000Y-70612000D02*
X67056000Y-77851000D01*
X85688000Y-70014000D02*
X90969000Y-70014000D01*
X98604695Y-69723000D02*
X96318695Y-72009000D01*
X67056000Y-77851000D02*
X71247000Y-82042000D01*
X78359000Y-70104000D02*
X76317695Y-70104000D01*
X75856000Y-69041695D02*
X76317695Y-68580000D01*
X67056000Y-71331305D02*
X67056000Y-70612000D01*
X72257747Y-76533052D02*
X67056000Y-71331305D01*
X82550000Y-68580000D02*
X84836000Y-70866000D01*
X110744000Y-69723000D02*
X98604695Y-69723000D01*
X110744000Y-69723000D02*
X112903000Y-69723000D01*
X88439948Y-76533052D02*
X72257747Y-76533052D01*
X92964000Y-72009000D02*
X88439948Y-76533052D01*
X90969000Y-70014000D02*
X92964000Y-72009000D01*
X67056000Y-70612000D02*
X67056000Y-70739000D01*
X76317695Y-70104000D02*
X75856000Y-69642305D01*
X96318695Y-72009000D02*
X92964000Y-72009000D01*
X84836000Y-70866000D02*
X85688000Y-70014000D01*
X75856000Y-69642305D02*
X75856000Y-69041695D01*
D17*
%TO.N,/ADC/IN+*%
X100983552Y-78528052D02*
X120744052Y-78528052D01*
X81425552Y-78528052D02*
X71646552Y-78528052D01*
X120744052Y-78528052D02*
X121088000Y-78872000D01*
X100983552Y-78528052D02*
X91204552Y-78528052D01*
X91204552Y-78528052D02*
X81425552Y-78528052D01*
%TO.N,/ADC/IN-*%
X89934552Y-77258052D02*
X99713552Y-77258052D01*
X99750604Y-77221000D02*
X99713552Y-77258052D01*
X73170552Y-77258052D02*
X80155552Y-77258052D01*
X80155552Y-77258052D02*
X89934552Y-77258052D01*
X70376552Y-77258052D02*
X73170552Y-77258052D01*
X121088000Y-77221000D02*
X99750604Y-77221000D01*
D16*
%TO.N,/Connector/CS_IN*%
X102885552Y-52667052D02*
X102888552Y-60113052D01*
X101060552Y-50842052D02*
X102885552Y-52667052D01*
X102888552Y-60113052D02*
X102885552Y-59983052D01*
%TO.N,/Connector/~{OE}*%
X96020552Y-58462052D02*
X98570552Y-58462052D01*
%TO.N,/Connector/SRCLK*%
X100203000Y-56779604D02*
X101060552Y-55922052D01*
X100203000Y-57277000D02*
X100203000Y-56779604D01*
%TO.N,/Connector/SPI_SCK*%
X96020552Y-55922052D02*
X98570552Y-55922052D01*
%TO.N,/Connector/~{SRCLR}*%
X100203000Y-54737000D02*
X100203000Y-54239604D01*
X100203000Y-54239604D02*
X101060552Y-53382052D01*
%TO.N,/Connector/SPI_MISO*%
X96020552Y-53382052D02*
X98570552Y-53382052D01*
%TO.N,/Connector/RCLK*%
X98552000Y-59563000D02*
X99959604Y-59563000D01*
X99959604Y-59563000D02*
X101060552Y-58462052D01*
%TO.N,/Connector/SPI_MOSI*%
X96020552Y-50842052D02*
X98570552Y-50842052D01*
%TO.N,/ADC/PD_SCK0*%
X72390000Y-68326000D02*
X72390000Y-71501000D01*
X68072000Y-64008000D02*
X72390000Y-68326000D01*
%TO.N,/ADC/PD_SCK1*%
X68490000Y-63283000D02*
X75692000Y-70485000D01*
X67056000Y-64008000D02*
X67056000Y-63998695D01*
X76073000Y-70866000D02*
X81407000Y-70866000D01*
X75692000Y-70485000D02*
X76073000Y-70866000D01*
X67771695Y-63283000D02*
X68490000Y-63283000D01*
X67056000Y-63998695D02*
X67771695Y-63283000D01*
%TO.N,/ADC/PD_SCK2*%
X65151000Y-65287305D02*
X65151000Y-64516000D01*
X72348695Y-72485000D02*
X65151000Y-65287305D01*
X88805000Y-72485000D02*
X72348695Y-72485000D01*
X90551000Y-70739000D02*
X88805000Y-72485000D01*
%TO.N,/Connector/BOOT1*%
X87503000Y-56642000D02*
X86862948Y-57282052D01*
X63886052Y-57282052D02*
X63246000Y-56642000D01*
X86862948Y-57282052D02*
X63886052Y-57282052D01*
%TD*%
%TA.AperFunction,Conductor*%
%TO.N,GND*%
G36*
X73220703Y-68898739D02*
G01*
X73227181Y-68904771D01*
X75279663Y-70957255D01*
X75279685Y-70957275D01*
X75572194Y-71249784D01*
X75582017Y-71262045D01*
X75582239Y-71261863D01*
X75587212Y-71267875D01*
X75637636Y-71315227D01*
X75658523Y-71336115D01*
X75658527Y-71336118D01*
X75658529Y-71336120D01*
X75664011Y-71340373D01*
X75668443Y-71344157D01*
X75702418Y-71376062D01*
X75719976Y-71385714D01*
X75736235Y-71396395D01*
X75752064Y-71408673D01*
X75794838Y-71427182D01*
X75800056Y-71429738D01*
X75840908Y-71452197D01*
X75860316Y-71457180D01*
X75878717Y-71463480D01*
X75897104Y-71471437D01*
X75940488Y-71478308D01*
X75943119Y-71478725D01*
X75948839Y-71479909D01*
X75993981Y-71491500D01*
X76014016Y-71491500D01*
X76033414Y-71493026D01*
X76053194Y-71496159D01*
X76053195Y-71496160D01*
X76053195Y-71496159D01*
X76053196Y-71496160D01*
X76099584Y-71491775D01*
X76105422Y-71491500D01*
X80703252Y-71491500D01*
X80770291Y-71511185D01*
X80795400Y-71532526D01*
X80801126Y-71538885D01*
X80801130Y-71538889D01*
X80933666Y-71635182D01*
X80976332Y-71690512D01*
X80982311Y-71760125D01*
X80949705Y-71821920D01*
X80888867Y-71856277D01*
X80860781Y-71859500D01*
X73391030Y-71859500D01*
X73323991Y-71839815D01*
X73278236Y-71787011D01*
X73268292Y-71717853D01*
X73273098Y-71697184D01*
X73275673Y-71689258D01*
X73275674Y-71689256D01*
X73295460Y-71501000D01*
X73275674Y-71312744D01*
X73217179Y-71132716D01*
X73122533Y-70968784D01*
X73094294Y-70937421D01*
X73047350Y-70885284D01*
X73017120Y-70822292D01*
X73015500Y-70802312D01*
X73015500Y-68992452D01*
X73035185Y-68925413D01*
X73087989Y-68879658D01*
X73157147Y-68869714D01*
X73220703Y-68898739D01*
G37*
%TD.AperFunction*%
%TA.AperFunction,Conductor*%
G36*
X82306587Y-69225185D02*
G01*
X82327229Y-69241819D01*
X83897038Y-70811629D01*
X83930523Y-70872952D01*
X83932678Y-70886348D01*
X83938046Y-70937421D01*
X83950326Y-71054256D01*
X83950327Y-71054259D01*
X84008818Y-71234277D01*
X84008821Y-71234284D01*
X84103467Y-71398216D01*
X84205185Y-71511185D01*
X84230129Y-71538888D01*
X84362666Y-71635182D01*
X84405332Y-71690512D01*
X84411311Y-71760125D01*
X84378705Y-71821920D01*
X84317867Y-71856277D01*
X84289781Y-71859500D01*
X81953219Y-71859500D01*
X81886180Y-71839815D01*
X81840425Y-71787011D01*
X81830481Y-71717853D01*
X81859506Y-71654297D01*
X81880334Y-71635182D01*
X81941454Y-71590775D01*
X82012871Y-71538888D01*
X82139533Y-71398216D01*
X82234179Y-71234284D01*
X82292674Y-71054256D01*
X82312460Y-70866000D01*
X82292674Y-70677744D01*
X82234179Y-70497716D01*
X82139533Y-70333784D01*
X82012871Y-70193112D01*
X82012870Y-70193111D01*
X81859734Y-70081851D01*
X81859729Y-70081848D01*
X81686807Y-70004857D01*
X81686802Y-70004855D01*
X81541001Y-69973865D01*
X81501646Y-69965500D01*
X81312354Y-69965500D01*
X81279897Y-69972398D01*
X81127197Y-70004855D01*
X81127192Y-70004857D01*
X80954270Y-70081848D01*
X80954265Y-70081851D01*
X80801130Y-70193110D01*
X80801126Y-70193114D01*
X80795400Y-70199474D01*
X80735913Y-70236121D01*
X80703252Y-70240500D01*
X79387829Y-70240500D01*
X79320790Y-70220815D01*
X79275035Y-70168011D01*
X79265646Y-70110498D01*
X79264460Y-70110498D01*
X79264460Y-70104002D01*
X79264460Y-70104000D01*
X79244674Y-69915744D01*
X79186179Y-69735716D01*
X79091533Y-69571784D01*
X78964871Y-69431112D01*
X78963090Y-69429818D01*
X78962309Y-69428805D01*
X78960042Y-69426764D01*
X78960415Y-69426349D01*
X78920424Y-69374490D01*
X78914444Y-69304876D01*
X78947050Y-69243081D01*
X79007888Y-69208723D01*
X79035975Y-69205500D01*
X82239548Y-69205500D01*
X82306587Y-69225185D01*
G37*
%TD.AperFunction*%
%TA.AperFunction,Conductor*%
G36*
X89533585Y-70659185D02*
G01*
X89579340Y-70711989D01*
X89589284Y-70781147D01*
X89560259Y-70844703D01*
X89554227Y-70851181D01*
X88582228Y-71823181D01*
X88520905Y-71856666D01*
X88494547Y-71859500D01*
X85382219Y-71859500D01*
X85315180Y-71839815D01*
X85269425Y-71787011D01*
X85259481Y-71717853D01*
X85288506Y-71654297D01*
X85309334Y-71635182D01*
X85370454Y-71590775D01*
X85441871Y-71538888D01*
X85568533Y-71398216D01*
X85663179Y-71234284D01*
X85721674Y-71054256D01*
X85739321Y-70886344D01*
X85765904Y-70821734D01*
X85774941Y-70811648D01*
X85910773Y-70675817D01*
X85972096Y-70642334D01*
X85998453Y-70639500D01*
X89466546Y-70639500D01*
X89533585Y-70659185D01*
G37*
%TD.AperFunction*%
%TA.AperFunction,Conductor*%
G36*
X66269410Y-64453032D02*
G01*
X66286244Y-64475744D01*
X66323467Y-64540216D01*
X66386284Y-64609981D01*
X66450129Y-64680888D01*
X66603265Y-64792148D01*
X66603270Y-64792151D01*
X66776192Y-64869142D01*
X66776197Y-64869144D01*
X66961354Y-64908500D01*
X66961355Y-64908500D01*
X67150644Y-64908500D01*
X67150646Y-64908500D01*
X67335803Y-64869144D01*
X67508730Y-64792151D01*
X67508734Y-64792148D01*
X67513563Y-64789998D01*
X67582813Y-64780712D01*
X67614437Y-64789998D01*
X67619265Y-64792148D01*
X67619270Y-64792151D01*
X67792197Y-64869144D01*
X67977354Y-64908500D01*
X68036548Y-64908500D01*
X68103587Y-64928185D01*
X68124229Y-64944819D01*
X71728181Y-68548771D01*
X71761666Y-68610094D01*
X71764500Y-68636452D01*
X71764500Y-70716853D01*
X71744815Y-70783892D01*
X71692011Y-70829647D01*
X71622853Y-70839591D01*
X71559297Y-70810566D01*
X71552819Y-70804534D01*
X65918957Y-65170672D01*
X65885472Y-65109349D01*
X65890456Y-65039657D01*
X65899251Y-65020991D01*
X65978179Y-64884284D01*
X66036674Y-64704256D01*
X66055537Y-64524780D01*
X66082120Y-64460168D01*
X66139418Y-64420183D01*
X66209237Y-64417523D01*
X66269410Y-64453032D01*
G37*
%TD.AperFunction*%
%TA.AperFunction,Conductor*%
G36*
X77749064Y-69225185D02*
G01*
X77794819Y-69277989D01*
X77804763Y-69347147D01*
X77775738Y-69410703D01*
X77754909Y-69429819D01*
X77753128Y-69431112D01*
X77753126Y-69431114D01*
X77747400Y-69437474D01*
X77687913Y-69474121D01*
X77655252Y-69478500D01*
X76628148Y-69478500D01*
X76561109Y-69458815D01*
X76540467Y-69442181D01*
X76527967Y-69429681D01*
X76494482Y-69368358D01*
X76499466Y-69298666D01*
X76527970Y-69254315D01*
X76530658Y-69251628D01*
X76540471Y-69241815D01*
X76601796Y-69208333D01*
X76628149Y-69205500D01*
X77682025Y-69205500D01*
X77749064Y-69225185D01*
G37*
%TD.AperFunction*%
%TA.AperFunction,Conductor*%
G36*
X132022539Y-36215185D02*
G01*
X132068294Y-36267989D01*
X132079500Y-36319500D01*
X132079500Y-87505500D01*
X132059815Y-87572539D01*
X132007011Y-87618294D01*
X131955500Y-87629500D01*
X57274500Y-87629500D01*
X57207461Y-87609815D01*
X57161706Y-87557011D01*
X57150500Y-87505500D01*
X57150500Y-82809000D01*
X57819922Y-82809000D01*
X57840219Y-83196287D01*
X57900886Y-83579323D01*
X57900887Y-83579330D01*
X58001262Y-83953936D01*
X58140244Y-84315994D01*
X58316310Y-84661543D01*
X58527531Y-84986793D01*
X58736095Y-85244350D01*
X58736096Y-85244350D01*
X60227266Y-83753180D01*
X60390130Y-83943870D01*
X60580819Y-84106733D01*
X59089648Y-85597903D01*
X59089649Y-85597904D01*
X59347206Y-85806468D01*
X59672456Y-86017689D01*
X60018005Y-86193755D01*
X60380063Y-86332737D01*
X60754669Y-86433112D01*
X60754676Y-86433113D01*
X61137712Y-86493780D01*
X61524999Y-86514078D01*
X61525001Y-86514078D01*
X61912287Y-86493780D01*
X62295323Y-86433113D01*
X62295330Y-86433112D01*
X62669936Y-86332737D01*
X63031994Y-86193755D01*
X63377543Y-86017689D01*
X63702783Y-85806476D01*
X63702785Y-85806475D01*
X63960349Y-85597902D01*
X62469180Y-84106733D01*
X62659870Y-83943870D01*
X62822733Y-83753180D01*
X64313902Y-85244349D01*
X64522475Y-84986785D01*
X64522476Y-84986783D01*
X64733689Y-84661543D01*
X64909755Y-84315994D01*
X65048737Y-83953936D01*
X65149112Y-83579330D01*
X65149113Y-83579323D01*
X65209780Y-83196287D01*
X65230078Y-82809000D01*
X65230078Y-82808999D01*
X65209780Y-82421712D01*
X65149113Y-82038676D01*
X65149112Y-82038669D01*
X65048737Y-81664063D01*
X64909755Y-81302005D01*
X64733689Y-80956456D01*
X64522468Y-80631206D01*
X64313904Y-80373649D01*
X64313903Y-80373648D01*
X62822732Y-81864818D01*
X62659870Y-81674130D01*
X62469180Y-81511266D01*
X63960350Y-80020096D01*
X63960350Y-80020095D01*
X63702793Y-79811531D01*
X63377543Y-79600310D01*
X63031994Y-79424244D01*
X62669936Y-79285262D01*
X62295330Y-79184887D01*
X62295323Y-79184886D01*
X61912287Y-79124219D01*
X61525001Y-79103922D01*
X61524999Y-79103922D01*
X61137712Y-79124219D01*
X60754676Y-79184886D01*
X60754669Y-79184887D01*
X60380063Y-79285262D01*
X60018005Y-79424244D01*
X59672456Y-79600310D01*
X59347206Y-79811531D01*
X59089648Y-80020095D01*
X59089648Y-80020096D01*
X60580819Y-81511266D01*
X60390130Y-81674130D01*
X60227266Y-81864818D01*
X58736096Y-80373648D01*
X58736095Y-80373648D01*
X58527531Y-80631206D01*
X58316310Y-80956456D01*
X58140244Y-81302005D01*
X58001262Y-81664063D01*
X57900887Y-82038669D01*
X57900886Y-82038676D01*
X57840219Y-82421712D01*
X57819922Y-82808999D01*
X57819922Y-82809000D01*
X57150500Y-82809000D01*
X57150500Y-64516000D01*
X64245540Y-64516000D01*
X64265326Y-64704256D01*
X64265327Y-64704259D01*
X64323818Y-64884277D01*
X64323821Y-64884284D01*
X64418467Y-65048216D01*
X64455902Y-65089791D01*
X64492319Y-65130237D01*
X64522549Y-65193228D01*
X64523619Y-65224871D01*
X64523326Y-65227964D01*
X64525500Y-65297119D01*
X64525500Y-65326648D01*
X64525501Y-65326665D01*
X64526368Y-65333536D01*
X64526826Y-65339355D01*
X64528290Y-65385929D01*
X64528291Y-65385932D01*
X64533880Y-65405172D01*
X64537824Y-65424216D01*
X64540336Y-65444096D01*
X64557490Y-65487424D01*
X64559382Y-65492952D01*
X64572381Y-65537693D01*
X64582580Y-65554939D01*
X64591138Y-65572408D01*
X64598514Y-65591037D01*
X64625898Y-65628728D01*
X64629106Y-65633612D01*
X64652827Y-65673721D01*
X64652833Y-65673729D01*
X64666990Y-65687885D01*
X64679628Y-65702681D01*
X64691405Y-65718891D01*
X64691406Y-65718892D01*
X64727309Y-65748593D01*
X64731620Y-65752515D01*
X70081794Y-71102690D01*
X71847892Y-72868788D01*
X71857717Y-72881051D01*
X71857938Y-72880869D01*
X71862909Y-72886878D01*
X71883738Y-72906437D01*
X71913330Y-72934226D01*
X71934224Y-72955120D01*
X71939706Y-72959373D01*
X71944138Y-72963157D01*
X71978113Y-72995062D01*
X71995671Y-73004714D01*
X72011928Y-73015393D01*
X72027759Y-73027673D01*
X72047432Y-73036186D01*
X72070528Y-73046182D01*
X72075772Y-73048750D01*
X72116603Y-73071197D01*
X72126423Y-73073718D01*
X72136000Y-73076177D01*
X72154414Y-73082481D01*
X72172799Y-73090438D01*
X72218852Y-73097732D01*
X72224521Y-73098906D01*
X72269676Y-73110500D01*
X72289711Y-73110500D01*
X72309108Y-73112026D01*
X72328891Y-73115160D01*
X72375279Y-73110775D01*
X72381117Y-73110500D01*
X88722257Y-73110500D01*
X88737877Y-73112224D01*
X88737904Y-73111939D01*
X88745660Y-73112671D01*
X88745667Y-73112673D01*
X88814814Y-73110500D01*
X88844350Y-73110500D01*
X88851228Y-73109630D01*
X88857041Y-73109172D01*
X88903627Y-73107709D01*
X88922869Y-73102117D01*
X88941912Y-73098174D01*
X88961792Y-73095664D01*
X89005122Y-73078507D01*
X89010646Y-73076617D01*
X89014396Y-73075527D01*
X89055390Y-73063618D01*
X89072629Y-73053422D01*
X89090103Y-73044862D01*
X89108727Y-73037488D01*
X89108727Y-73037487D01*
X89108732Y-73037486D01*
X89146449Y-73010082D01*
X89151305Y-73006892D01*
X89191420Y-72983170D01*
X89205589Y-72968999D01*
X89220379Y-72956368D01*
X89236587Y-72944594D01*
X89266299Y-72908676D01*
X89270212Y-72904376D01*
X90498772Y-71675819D01*
X90560095Y-71642334D01*
X90586453Y-71639500D01*
X90645644Y-71639500D01*
X90645646Y-71639500D01*
X90830803Y-71600144D01*
X91003730Y-71523151D01*
X91156871Y-71411888D01*
X91223624Y-71337751D01*
X91283110Y-71301104D01*
X91352967Y-71302435D01*
X91403453Y-71333043D01*
X91991729Y-71921320D01*
X92025213Y-71982641D01*
X92020229Y-72052333D01*
X91991728Y-72096680D01*
X88217176Y-75871233D01*
X88155853Y-75904718D01*
X88129495Y-75907552D01*
X72568200Y-75907552D01*
X72501161Y-75887867D01*
X72480519Y-75871233D01*
X67842991Y-71233705D01*
X67809506Y-71172382D01*
X67814490Y-71102690D01*
X67823285Y-71084024D01*
X67833278Y-71066713D01*
X67883179Y-70980284D01*
X67941674Y-70800256D01*
X67961460Y-70612000D01*
X67941674Y-70423744D01*
X67883179Y-70243716D01*
X67788533Y-70079784D01*
X67661871Y-69939112D01*
X67661870Y-69939111D01*
X67508734Y-69827851D01*
X67508729Y-69827848D01*
X67335807Y-69750857D01*
X67335802Y-69750855D01*
X67190001Y-69719865D01*
X67150646Y-69711500D01*
X66961354Y-69711500D01*
X66928897Y-69718398D01*
X66776197Y-69750855D01*
X66776192Y-69750857D01*
X66603270Y-69827848D01*
X66603265Y-69827851D01*
X66450129Y-69939111D01*
X66323466Y-70079785D01*
X66228821Y-70243715D01*
X66228818Y-70243722D01*
X66170327Y-70423740D01*
X66170326Y-70423744D01*
X66150540Y-70612000D01*
X66170326Y-70800256D01*
X66170327Y-70800259D01*
X66228818Y-70980277D01*
X66228821Y-70980284D01*
X66323467Y-71144216D01*
X66397595Y-71226543D01*
X66427825Y-71289534D01*
X66429384Y-71305618D01*
X66430500Y-71341118D01*
X66430500Y-77768255D01*
X66428775Y-77783872D01*
X66429061Y-77783899D01*
X66428326Y-77791665D01*
X66430500Y-77860814D01*
X66430500Y-77890343D01*
X66430501Y-77890360D01*
X66431368Y-77897231D01*
X66431826Y-77903050D01*
X66433290Y-77949624D01*
X66433291Y-77949627D01*
X66438880Y-77968867D01*
X66442824Y-77987911D01*
X66445336Y-78007791D01*
X66462490Y-78051119D01*
X66464382Y-78056647D01*
X66477381Y-78101388D01*
X66487580Y-78118634D01*
X66496136Y-78136100D01*
X66503514Y-78154732D01*
X66530898Y-78192423D01*
X66534106Y-78197307D01*
X66557827Y-78237416D01*
X66557833Y-78237424D01*
X66571990Y-78251580D01*
X66584628Y-78266376D01*
X66596405Y-78282586D01*
X66596406Y-78282587D01*
X66632309Y-78312288D01*
X66636620Y-78316210D01*
X69425590Y-81105181D01*
X70308038Y-81987629D01*
X70341523Y-82048952D01*
X70343678Y-82062348D01*
X70351968Y-82141227D01*
X70361326Y-82230256D01*
X70361327Y-82230259D01*
X70419818Y-82410277D01*
X70419821Y-82410284D01*
X70514467Y-82574216D01*
X70641129Y-82714888D01*
X70794265Y-82826148D01*
X70794270Y-82826151D01*
X70967192Y-82903142D01*
X70967197Y-82903144D01*
X71152354Y-82942500D01*
X71152355Y-82942500D01*
X71341644Y-82942500D01*
X71341646Y-82942500D01*
X71526803Y-82903144D01*
X71699730Y-82826151D01*
X71852871Y-82714888D01*
X71979533Y-82574216D01*
X72074179Y-82410284D01*
X72132674Y-82230256D01*
X72152460Y-82042000D01*
X72132674Y-81853744D01*
X72074179Y-81673716D01*
X71979533Y-81509784D01*
X71852871Y-81369112D01*
X71852870Y-81369111D01*
X71699734Y-81257851D01*
X71699729Y-81257848D01*
X71526807Y-81180857D01*
X71526802Y-81180855D01*
X71381001Y-81149865D01*
X71341646Y-81141500D01*
X71341645Y-81141500D01*
X71282452Y-81141500D01*
X71215413Y-81121815D01*
X71194771Y-81105181D01*
X67717819Y-77628228D01*
X67684334Y-77566905D01*
X67681500Y-77540547D01*
X67681500Y-73140757D01*
X67701185Y-73073718D01*
X67753989Y-73027963D01*
X67823147Y-73018019D01*
X67886703Y-73047044D01*
X67893181Y-73053076D01*
X71285975Y-76445871D01*
X71319460Y-76507194D01*
X71314476Y-76576886D01*
X71272604Y-76632819D01*
X71207140Y-76657236D01*
X71198294Y-76657552D01*
X71102810Y-76657552D01*
X71035771Y-76637867D01*
X71010661Y-76616525D01*
X70982423Y-76585164D01*
X70982416Y-76585158D01*
X70829286Y-76473903D01*
X70829281Y-76473900D01*
X70656359Y-76396909D01*
X70656354Y-76396907D01*
X70510553Y-76365917D01*
X70471198Y-76357552D01*
X70281906Y-76357552D01*
X70271062Y-76359857D01*
X70096749Y-76396907D01*
X70096744Y-76396909D01*
X69923822Y-76473900D01*
X69923817Y-76473903D01*
X69770681Y-76585163D01*
X69644018Y-76725837D01*
X69549373Y-76889767D01*
X69549370Y-76889774D01*
X69502918Y-77032740D01*
X69490878Y-77069796D01*
X69471092Y-77258052D01*
X69490878Y-77446308D01*
X69490879Y-77446311D01*
X69549370Y-77626329D01*
X69549373Y-77626336D01*
X69644019Y-77790268D01*
X69745569Y-77903050D01*
X69770681Y-77930940D01*
X69923817Y-78042200D01*
X69923822Y-78042203D01*
X70096744Y-78119194D01*
X70096749Y-78119196D01*
X70281906Y-78158552D01*
X70281907Y-78158552D01*
X70471196Y-78158552D01*
X70471198Y-78158552D01*
X70635546Y-78123619D01*
X70705213Y-78128935D01*
X70760947Y-78171072D01*
X70785052Y-78236652D01*
X70779258Y-78283226D01*
X70760879Y-78339791D01*
X70760878Y-78339793D01*
X70760878Y-78339796D01*
X70741092Y-78528052D01*
X70760878Y-78716308D01*
X70760879Y-78716311D01*
X70819370Y-78896329D01*
X70819373Y-78896336D01*
X70914019Y-79060268D01*
X71026226Y-79184886D01*
X71040681Y-79200940D01*
X71193817Y-79312200D01*
X71193822Y-79312203D01*
X71366744Y-79389194D01*
X71366749Y-79389196D01*
X71551906Y-79428552D01*
X71551907Y-79428552D01*
X71741196Y-79428552D01*
X71741198Y-79428552D01*
X71926355Y-79389196D01*
X72099282Y-79312203D01*
X72252423Y-79200940D01*
X72280661Y-79169579D01*
X72340147Y-79132931D01*
X72372810Y-79128552D01*
X80699294Y-79128552D01*
X80766333Y-79148237D01*
X80791443Y-79169579D01*
X80819680Y-79200939D01*
X80819687Y-79200945D01*
X80972817Y-79312200D01*
X80972822Y-79312203D01*
X81145744Y-79389194D01*
X81145749Y-79389196D01*
X81330906Y-79428552D01*
X81330907Y-79428552D01*
X81520196Y-79428552D01*
X81520198Y-79428552D01*
X81705355Y-79389196D01*
X81878282Y-79312203D01*
X82031423Y-79200940D01*
X82059661Y-79169579D01*
X82119147Y-79132931D01*
X82151810Y-79128552D01*
X90478294Y-79128552D01*
X90545333Y-79148237D01*
X90570443Y-79169579D01*
X90598680Y-79200939D01*
X90598687Y-79200945D01*
X90751817Y-79312200D01*
X90751822Y-79312203D01*
X90924744Y-79389194D01*
X90924749Y-79389196D01*
X91109906Y-79428552D01*
X91109907Y-79428552D01*
X91299196Y-79428552D01*
X91299198Y-79428552D01*
X91484355Y-79389196D01*
X91657282Y-79312203D01*
X91810423Y-79200940D01*
X91838661Y-79169579D01*
X91898147Y-79132931D01*
X91930810Y-79128552D01*
X100257294Y-79128552D01*
X100324333Y-79148237D01*
X100349443Y-79169579D01*
X100377680Y-79200939D01*
X100377687Y-79200945D01*
X100530817Y-79312200D01*
X100530822Y-79312203D01*
X100703744Y-79389194D01*
X100703749Y-79389196D01*
X100888906Y-79428552D01*
X100888907Y-79428552D01*
X101078196Y-79428552D01*
X101078198Y-79428552D01*
X101263355Y-79389196D01*
X101436282Y-79312203D01*
X101589423Y-79200940D01*
X101617661Y-79169579D01*
X101677147Y-79132931D01*
X101709810Y-79128552D01*
X115530542Y-79128552D01*
X115597581Y-79148237D01*
X115643336Y-79201041D01*
X115653280Y-79270199D01*
X115624255Y-79333755D01*
X115598077Y-79356547D01*
X115296917Y-79552122D01*
X114995488Y-79796215D01*
X114995480Y-79796222D01*
X114721222Y-80070480D01*
X114721215Y-80070488D01*
X114477122Y-80371917D01*
X114265877Y-80697206D01*
X114089787Y-81042802D01*
X113950788Y-81404905D01*
X113850397Y-81779570D01*
X113850397Y-81779572D01*
X113789722Y-82162660D01*
X113769422Y-82549999D01*
X113769422Y-82550000D01*
X113789722Y-82937339D01*
X113850397Y-83320427D01*
X113850397Y-83320429D01*
X113950788Y-83695094D01*
X114089787Y-84057197D01*
X114265877Y-84402793D01*
X114477122Y-84728082D01*
X114477124Y-84728084D01*
X114721219Y-85029516D01*
X114995484Y-85303781D01*
X114995488Y-85303784D01*
X115296917Y-85547877D01*
X115373952Y-85597904D01*
X115622211Y-85759125D01*
X115967806Y-85935214D01*
X116329913Y-86074214D01*
X116704567Y-86174602D01*
X117087662Y-86235278D01*
X117453576Y-86254455D01*
X117474999Y-86255578D01*
X117475000Y-86255578D01*
X117475001Y-86255578D01*
X117495301Y-86254514D01*
X117862338Y-86235278D01*
X118245433Y-86174602D01*
X118620087Y-86074214D01*
X118982194Y-85935214D01*
X119327789Y-85759125D01*
X119653084Y-85547876D01*
X119954516Y-85303781D01*
X120228781Y-85029516D01*
X120472876Y-84728084D01*
X120684125Y-84402789D01*
X120860214Y-84057194D01*
X120999214Y-83695087D01*
X121099602Y-83320433D01*
X121160278Y-82937338D01*
X121180578Y-82550000D01*
X121160278Y-82162662D01*
X121099602Y-81779567D01*
X120999214Y-81404913D01*
X120860214Y-81042806D01*
X120684125Y-80697211D01*
X120652755Y-80648905D01*
X120472877Y-80371917D01*
X120228784Y-80070488D01*
X120228781Y-80070484D01*
X119954516Y-79796219D01*
X119876625Y-79733144D01*
X119653082Y-79552122D01*
X119351923Y-79356547D01*
X119306420Y-79303526D01*
X119296806Y-79234321D01*
X119326133Y-79170904D01*
X119385090Y-79133410D01*
X119419458Y-79128552D01*
X120134426Y-79128552D01*
X120201465Y-79148237D01*
X120247220Y-79201041D01*
X120252354Y-79214227D01*
X120260821Y-79240284D01*
X120355467Y-79404216D01*
X120482129Y-79544888D01*
X120635265Y-79656148D01*
X120635270Y-79656151D01*
X120808192Y-79733142D01*
X120808197Y-79733144D01*
X120993354Y-79772500D01*
X120993355Y-79772500D01*
X121182644Y-79772500D01*
X121182646Y-79772500D01*
X121367803Y-79733144D01*
X121540730Y-79656151D01*
X121693871Y-79544888D01*
X121820533Y-79404216D01*
X121837401Y-79375000D01*
X126914341Y-79375000D01*
X126934936Y-79610403D01*
X126934938Y-79610413D01*
X126996094Y-79838655D01*
X126996096Y-79838659D01*
X126996097Y-79838663D01*
X127080700Y-80020095D01*
X127095965Y-80052830D01*
X127095967Y-80052834D01*
X127108326Y-80070484D01*
X127231505Y-80246401D01*
X127398599Y-80413495D01*
X127495384Y-80481265D01*
X127592165Y-80549032D01*
X127592167Y-80549033D01*
X127592170Y-80549035D01*
X127806337Y-80648903D01*
X128034592Y-80710063D01*
X128222918Y-80726539D01*
X128269999Y-80730659D01*
X128270000Y-80730659D01*
X128270001Y-80730659D01*
X128309234Y-80727226D01*
X128505408Y-80710063D01*
X128733663Y-80648903D01*
X128947830Y-80549035D01*
X129141401Y-80413495D01*
X129308495Y-80246401D01*
X129444035Y-80052830D01*
X129543903Y-79838663D01*
X129605063Y-79610408D01*
X129625659Y-79375000D01*
X129605063Y-79139592D01*
X129543903Y-78911337D01*
X129444035Y-78697171D01*
X129434633Y-78683744D01*
X129308496Y-78503600D01*
X129308495Y-78503599D01*
X129186567Y-78381671D01*
X129153084Y-78320351D01*
X129158068Y-78250659D01*
X129199939Y-78194725D01*
X129230915Y-78177810D01*
X129362331Y-78128796D01*
X129477546Y-78042546D01*
X129563796Y-77927331D01*
X129614091Y-77792483D01*
X129620500Y-77732873D01*
X129620499Y-75937128D01*
X129614091Y-75877517D01*
X129611747Y-75871233D01*
X129563797Y-75742671D01*
X129563793Y-75742664D01*
X129477547Y-75627455D01*
X129477544Y-75627452D01*
X129362335Y-75541206D01*
X129362328Y-75541202D01*
X129227482Y-75490908D01*
X129227483Y-75490908D01*
X129167883Y-75484501D01*
X129167881Y-75484500D01*
X129167873Y-75484500D01*
X129167864Y-75484500D01*
X127372129Y-75484500D01*
X127372123Y-75484501D01*
X127312516Y-75490908D01*
X127177671Y-75541202D01*
X127177664Y-75541206D01*
X127062455Y-75627452D01*
X127062452Y-75627455D01*
X126976206Y-75742664D01*
X126976202Y-75742671D01*
X126925908Y-75877517D01*
X126919501Y-75937116D01*
X126919501Y-75937123D01*
X126919500Y-75937135D01*
X126919500Y-77732870D01*
X126919501Y-77732876D01*
X126925908Y-77792483D01*
X126976202Y-77927328D01*
X126976206Y-77927335D01*
X127062452Y-78042544D01*
X127062455Y-78042547D01*
X127177664Y-78128793D01*
X127177671Y-78128797D01*
X127309081Y-78177810D01*
X127365015Y-78219681D01*
X127389432Y-78285145D01*
X127374580Y-78353418D01*
X127353430Y-78381673D01*
X127231503Y-78503600D01*
X127095965Y-78697169D01*
X127095964Y-78697171D01*
X126996098Y-78911335D01*
X126996094Y-78911344D01*
X126934938Y-79139586D01*
X126934936Y-79139596D01*
X126914341Y-79374999D01*
X126914341Y-79375000D01*
X121837401Y-79375000D01*
X121915179Y-79240284D01*
X121973674Y-79060256D01*
X121993460Y-78872000D01*
X121973674Y-78683744D01*
X121915179Y-78503716D01*
X121820533Y-78339784D01*
X121693871Y-78199112D01*
X121684664Y-78192423D01*
X121621894Y-78146818D01*
X121579228Y-78091489D01*
X121573249Y-78021875D01*
X121605854Y-77960080D01*
X121621894Y-77946182D01*
X121647536Y-77927552D01*
X121693871Y-77893888D01*
X121820533Y-77753216D01*
X121915179Y-77589284D01*
X121973674Y-77409256D01*
X121993460Y-77221000D01*
X121973674Y-77032744D01*
X121915179Y-76852716D01*
X121820533Y-76688784D01*
X121693871Y-76548112D01*
X121693863Y-76548106D01*
X121540734Y-76436851D01*
X121540729Y-76436848D01*
X121367807Y-76359857D01*
X121367802Y-76359855D01*
X121222001Y-76328865D01*
X121182646Y-76320500D01*
X120993354Y-76320500D01*
X120960897Y-76327398D01*
X120808197Y-76359855D01*
X120808192Y-76359857D01*
X120635270Y-76436848D01*
X120635265Y-76436851D01*
X120482135Y-76548106D01*
X120482128Y-76548112D01*
X120453891Y-76579473D01*
X120394405Y-76616121D01*
X120361742Y-76620500D01*
X100406267Y-76620500D01*
X100339228Y-76600815D01*
X100323291Y-76588647D01*
X100319416Y-76585158D01*
X100166286Y-76473903D01*
X100166281Y-76473900D01*
X99993359Y-76396909D01*
X99993354Y-76396907D01*
X99847553Y-76365917D01*
X99808198Y-76357552D01*
X99618906Y-76357552D01*
X99608062Y-76359857D01*
X99433749Y-76396907D01*
X99433744Y-76396909D01*
X99260822Y-76473900D01*
X99260817Y-76473903D01*
X99107687Y-76585158D01*
X99107680Y-76585164D01*
X99079443Y-76616525D01*
X99019957Y-76653173D01*
X98987294Y-76657552D01*
X90660810Y-76657552D01*
X90593771Y-76637867D01*
X90568661Y-76616525D01*
X90540423Y-76585164D01*
X90540416Y-76585158D01*
X90387286Y-76473903D01*
X90387281Y-76473900D01*
X90214359Y-76396909D01*
X90214354Y-76396907D01*
X90068553Y-76365917D01*
X90029198Y-76357552D01*
X89839906Y-76357552D01*
X89817761Y-76362259D01*
X89748094Y-76356941D01*
X89692362Y-76314803D01*
X89668258Y-76249223D01*
X89683436Y-76181021D01*
X89704298Y-76153291D01*
X92911771Y-72945819D01*
X92973094Y-72912334D01*
X92999452Y-72909500D01*
X93058644Y-72909500D01*
X93058646Y-72909500D01*
X93243803Y-72870144D01*
X93416730Y-72793151D01*
X93569871Y-72681888D01*
X93572788Y-72678647D01*
X93575600Y-72675526D01*
X93635087Y-72638879D01*
X93667748Y-72634500D01*
X96235952Y-72634500D01*
X96251572Y-72636224D01*
X96251599Y-72635939D01*
X96259355Y-72636671D01*
X96259362Y-72636673D01*
X96328509Y-72634500D01*
X96358045Y-72634500D01*
X96364923Y-72633630D01*
X96370736Y-72633172D01*
X96417322Y-72631709D01*
X96436564Y-72626117D01*
X96455607Y-72622174D01*
X96475487Y-72619664D01*
X96518817Y-72602507D01*
X96524341Y-72600617D01*
X96528091Y-72599527D01*
X96569085Y-72587618D01*
X96586324Y-72577422D01*
X96603798Y-72568862D01*
X96622422Y-72561488D01*
X96622422Y-72561487D01*
X96622427Y-72561486D01*
X96660144Y-72534082D01*
X96665000Y-72530892D01*
X96705115Y-72507170D01*
X96719284Y-72492999D01*
X96734074Y-72480368D01*
X96750282Y-72468594D01*
X96779994Y-72432676D01*
X96783907Y-72428376D01*
X98827467Y-70384819D01*
X98888790Y-70351334D01*
X98915148Y-70348500D01*
X110040252Y-70348500D01*
X110107291Y-70368185D01*
X110132400Y-70389526D01*
X110138126Y-70395885D01*
X110138130Y-70395889D01*
X110291265Y-70507148D01*
X110291270Y-70507151D01*
X110464192Y-70584142D01*
X110464197Y-70584144D01*
X110649354Y-70623500D01*
X110649355Y-70623500D01*
X110838644Y-70623500D01*
X110838646Y-70623500D01*
X111023803Y-70584144D01*
X111196730Y-70507151D01*
X111349871Y-70395888D01*
X111352788Y-70392647D01*
X111355600Y-70389526D01*
X111415087Y-70352879D01*
X111447748Y-70348500D01*
X112199252Y-70348500D01*
X112266291Y-70368185D01*
X112291400Y-70389526D01*
X112297126Y-70395885D01*
X112297130Y-70395889D01*
X112450265Y-70507148D01*
X112450270Y-70507151D01*
X112623192Y-70584142D01*
X112623197Y-70584144D01*
X112808354Y-70623500D01*
X112808355Y-70623500D01*
X112997644Y-70623500D01*
X112997646Y-70623500D01*
X113182803Y-70584144D01*
X113355730Y-70507151D01*
X113508871Y-70395888D01*
X113635533Y-70255216D01*
X113730179Y-70091284D01*
X113788674Y-69911256D01*
X113808460Y-69723000D01*
X113788674Y-69534744D01*
X113730179Y-69354716D01*
X113635533Y-69190784D01*
X113508871Y-69050112D01*
X113508870Y-69050111D01*
X113355734Y-68938851D01*
X113355729Y-68938848D01*
X113182807Y-68861857D01*
X113182802Y-68861855D01*
X113028236Y-68829002D01*
X112997646Y-68822500D01*
X112808354Y-68822500D01*
X112778235Y-68828902D01*
X112623197Y-68861855D01*
X112623192Y-68861857D01*
X112450270Y-68938848D01*
X112450265Y-68938851D01*
X112297130Y-69050110D01*
X112297126Y-69050114D01*
X112291400Y-69056474D01*
X112231913Y-69093121D01*
X112199252Y-69097500D01*
X111447748Y-69097500D01*
X111380709Y-69077815D01*
X111355600Y-69056474D01*
X111349873Y-69050114D01*
X111349869Y-69050110D01*
X111196734Y-68938851D01*
X111196729Y-68938848D01*
X111023807Y-68861857D01*
X111023802Y-68861855D01*
X110869236Y-68829002D01*
X110838646Y-68822500D01*
X110649354Y-68822500D01*
X110619235Y-68828902D01*
X110464197Y-68861855D01*
X110464192Y-68861857D01*
X110291270Y-68938848D01*
X110291265Y-68938851D01*
X110138130Y-69050110D01*
X110138126Y-69050114D01*
X110132400Y-69056474D01*
X110072913Y-69093121D01*
X110040252Y-69097500D01*
X98687432Y-69097500D01*
X98671815Y-69095776D01*
X98671788Y-69096062D01*
X98664026Y-69095327D01*
X98594898Y-69097500D01*
X98565345Y-69097500D01*
X98564624Y-69097590D01*
X98558452Y-69098369D01*
X98552640Y-69098826D01*
X98506068Y-69100290D01*
X98506067Y-69100290D01*
X98486824Y-69105881D01*
X98467774Y-69109825D01*
X98447906Y-69112334D01*
X98447904Y-69112335D01*
X98404579Y-69129488D01*
X98399052Y-69131380D01*
X98354305Y-69144381D01*
X98354304Y-69144382D01*
X98337062Y-69154579D01*
X98319594Y-69163137D01*
X98300964Y-69170513D01*
X98300962Y-69170514D01*
X98263271Y-69197898D01*
X98258389Y-69201105D01*
X98218274Y-69224830D01*
X98204103Y-69239000D01*
X98189318Y-69251628D01*
X98173107Y-69263407D01*
X98143404Y-69299310D01*
X98139471Y-69303631D01*
X97109319Y-70333785D01*
X96095923Y-71347181D01*
X96034600Y-71380666D01*
X96008242Y-71383500D01*
X93667748Y-71383500D01*
X93600709Y-71363815D01*
X93575600Y-71342474D01*
X93569873Y-71336114D01*
X93569869Y-71336110D01*
X93416734Y-71224851D01*
X93416729Y-71224848D01*
X93243807Y-71147857D01*
X93243802Y-71147855D01*
X93098001Y-71116865D01*
X93058646Y-71108500D01*
X93058645Y-71108500D01*
X92999452Y-71108500D01*
X92932413Y-71088815D01*
X92911771Y-71072181D01*
X92192469Y-70352879D01*
X91469803Y-69630212D01*
X91459980Y-69617950D01*
X91459759Y-69618134D01*
X91454786Y-69612123D01*
X91436159Y-69594631D01*
X91404364Y-69564773D01*
X91393919Y-69554328D01*
X91383475Y-69543883D01*
X91377986Y-69539625D01*
X91373561Y-69535847D01*
X91339582Y-69503938D01*
X91339580Y-69503936D01*
X91339577Y-69503935D01*
X91322029Y-69494288D01*
X91305763Y-69483604D01*
X91289933Y-69471325D01*
X91247168Y-69452818D01*
X91241922Y-69450248D01*
X91201093Y-69427803D01*
X91201092Y-69427802D01*
X91181693Y-69422822D01*
X91163281Y-69416518D01*
X91144898Y-69408562D01*
X91144892Y-69408560D01*
X91098874Y-69401272D01*
X91093152Y-69400087D01*
X91048021Y-69388500D01*
X91048019Y-69388500D01*
X91027984Y-69388500D01*
X91008586Y-69386973D01*
X91001162Y-69385797D01*
X90988805Y-69383840D01*
X90988804Y-69383840D01*
X90942416Y-69388225D01*
X90936578Y-69388500D01*
X85770743Y-69388500D01*
X85755122Y-69386775D01*
X85755096Y-69387061D01*
X85747334Y-69386327D01*
X85747333Y-69386327D01*
X85678186Y-69388500D01*
X85648649Y-69388500D01*
X85641766Y-69389369D01*
X85635949Y-69389826D01*
X85589373Y-69391290D01*
X85570129Y-69396881D01*
X85551079Y-69400825D01*
X85531211Y-69403334D01*
X85487884Y-69420488D01*
X85482358Y-69422379D01*
X85437614Y-69435379D01*
X85437610Y-69435381D01*
X85420366Y-69445579D01*
X85402905Y-69454133D01*
X85384274Y-69461510D01*
X85384262Y-69461517D01*
X85346570Y-69488902D01*
X85341687Y-69492109D01*
X85301580Y-69515829D01*
X85287414Y-69529995D01*
X85272624Y-69542627D01*
X85256414Y-69554404D01*
X85256411Y-69554407D01*
X85226710Y-69590309D01*
X85222777Y-69594631D01*
X84923681Y-69893728D01*
X84862358Y-69927213D01*
X84792667Y-69922229D01*
X84748319Y-69893728D01*
X83050803Y-68196212D01*
X83040980Y-68183950D01*
X83040759Y-68184134D01*
X83035786Y-68178123D01*
X83017159Y-68160631D01*
X82985364Y-68130773D01*
X82974919Y-68120328D01*
X82964475Y-68109883D01*
X82958986Y-68105625D01*
X82954561Y-68101847D01*
X82920582Y-68069938D01*
X82920580Y-68069936D01*
X82920577Y-68069935D01*
X82903029Y-68060288D01*
X82886763Y-68049604D01*
X82870933Y-68037325D01*
X82828168Y-68018818D01*
X82822922Y-68016248D01*
X82782093Y-67993803D01*
X82782092Y-67993802D01*
X82762693Y-67988822D01*
X82744281Y-67982518D01*
X82725898Y-67974562D01*
X82725892Y-67974560D01*
X82679874Y-67967272D01*
X82674152Y-67966087D01*
X82629021Y-67954500D01*
X82629019Y-67954500D01*
X82608984Y-67954500D01*
X82589586Y-67952973D01*
X82582162Y-67951797D01*
X82569805Y-67949840D01*
X82569804Y-67949840D01*
X82523416Y-67954225D01*
X82517578Y-67954500D01*
X76400432Y-67954500D01*
X76384815Y-67952776D01*
X76384788Y-67953062D01*
X76377026Y-67952327D01*
X76307898Y-67954500D01*
X76278345Y-67954500D01*
X76277624Y-67954590D01*
X76271452Y-67955369D01*
X76265640Y-67955826D01*
X76219073Y-67957290D01*
X76219062Y-67957292D01*
X76199829Y-67962879D01*
X76180789Y-67966822D01*
X76160912Y-67969334D01*
X76160905Y-67969335D01*
X76160903Y-67969336D01*
X76160901Y-67969336D01*
X76160900Y-67969337D01*
X76117563Y-67986494D01*
X76112037Y-67988386D01*
X76067306Y-68001382D01*
X76067303Y-68001383D01*
X76050058Y-68011581D01*
X76032596Y-68020135D01*
X76013967Y-68027511D01*
X76013962Y-68027513D01*
X75976259Y-68054906D01*
X75971377Y-68058112D01*
X75931275Y-68081828D01*
X75917103Y-68096000D01*
X75902318Y-68108628D01*
X75886107Y-68120407D01*
X75856404Y-68156310D01*
X75852472Y-68160631D01*
X75472208Y-68540894D01*
X75459951Y-68550715D01*
X75460134Y-68550936D01*
X75454123Y-68555908D01*
X75406772Y-68606331D01*
X75385889Y-68627214D01*
X75385877Y-68627227D01*
X75381621Y-68632712D01*
X75377837Y-68637142D01*
X75345937Y-68671113D01*
X75345936Y-68671115D01*
X75336284Y-68688671D01*
X75325610Y-68704921D01*
X75313329Y-68720756D01*
X75313324Y-68720763D01*
X75294815Y-68763533D01*
X75292245Y-68768779D01*
X75269803Y-68809601D01*
X75264822Y-68829002D01*
X75258521Y-68847405D01*
X75250562Y-68865797D01*
X75250559Y-68865806D01*
X75248545Y-68878524D01*
X75218613Y-68941657D01*
X75159300Y-68978585D01*
X75089437Y-68977584D01*
X75038392Y-68946801D01*
X72131591Y-66040000D01*
X123929922Y-66040000D01*
X123950219Y-66427287D01*
X124010886Y-66810323D01*
X124010887Y-66810330D01*
X124111262Y-67184936D01*
X124250244Y-67546994D01*
X124426310Y-67892543D01*
X124637531Y-68217793D01*
X124846095Y-68475350D01*
X124846096Y-68475350D01*
X126337266Y-66984180D01*
X126500130Y-67174870D01*
X126690819Y-67337733D01*
X125199648Y-68828903D01*
X125199649Y-68828904D01*
X125457206Y-69037468D01*
X125782456Y-69248689D01*
X126128005Y-69424755D01*
X126490063Y-69563737D01*
X126864669Y-69664112D01*
X126864676Y-69664113D01*
X127247712Y-69724780D01*
X127634999Y-69745078D01*
X127635001Y-69745078D01*
X128022287Y-69724780D01*
X128405323Y-69664113D01*
X128405330Y-69664112D01*
X128779936Y-69563737D01*
X129141994Y-69424755D01*
X129487543Y-69248689D01*
X129812783Y-69037476D01*
X129812785Y-69037475D01*
X130070349Y-68828902D01*
X128579180Y-67337733D01*
X128769870Y-67174870D01*
X128932733Y-66984180D01*
X130423902Y-68475349D01*
X130632475Y-68217785D01*
X130632476Y-68217783D01*
X130843689Y-67892543D01*
X131019755Y-67546994D01*
X131158737Y-67184936D01*
X131259112Y-66810330D01*
X131259113Y-66810323D01*
X131319780Y-66427287D01*
X131340078Y-66040000D01*
X131340078Y-66039999D01*
X131319780Y-65652712D01*
X131259113Y-65269676D01*
X131259112Y-65269669D01*
X131158737Y-64895063D01*
X131019755Y-64533005D01*
X130843689Y-64187456D01*
X130632468Y-63862206D01*
X130423904Y-63604649D01*
X130423903Y-63604648D01*
X128932732Y-65095818D01*
X128769870Y-64905130D01*
X128579180Y-64742266D01*
X130070350Y-63251096D01*
X130070350Y-63251095D01*
X129812793Y-63042531D01*
X129487543Y-62831310D01*
X129141994Y-62655244D01*
X128779936Y-62516262D01*
X128405330Y-62415887D01*
X128405323Y-62415886D01*
X128022287Y-62355219D01*
X127635001Y-62334922D01*
X127634999Y-62334922D01*
X127247712Y-62355219D01*
X126864676Y-62415886D01*
X126864669Y-62415887D01*
X126490063Y-62516262D01*
X126128005Y-62655244D01*
X125782456Y-62831310D01*
X125457206Y-63042531D01*
X125199648Y-63251095D01*
X125199648Y-63251096D01*
X126690819Y-64742266D01*
X126500130Y-64905130D01*
X126337266Y-65095818D01*
X124846096Y-63604648D01*
X124846095Y-63604648D01*
X124637531Y-63862206D01*
X124426310Y-64187456D01*
X124250244Y-64533005D01*
X124111262Y-64895063D01*
X124010887Y-65269669D01*
X124010886Y-65269676D01*
X123950219Y-65652712D01*
X123929922Y-66039999D01*
X123929922Y-66040000D01*
X72131591Y-66040000D01*
X68990803Y-62899212D01*
X68980980Y-62886950D01*
X68980759Y-62887134D01*
X68975786Y-62881123D01*
X68957159Y-62863631D01*
X68925364Y-62833773D01*
X68914919Y-62823328D01*
X68904475Y-62812883D01*
X68898986Y-62808625D01*
X68894561Y-62804847D01*
X68860582Y-62772938D01*
X68860580Y-62772936D01*
X68860577Y-62772935D01*
X68843029Y-62763288D01*
X68826763Y-62752604D01*
X68810933Y-62740325D01*
X68768168Y-62721818D01*
X68762922Y-62719248D01*
X68722093Y-62696803D01*
X68722092Y-62696802D01*
X68702693Y-62691822D01*
X68684281Y-62685518D01*
X68665898Y-62677562D01*
X68665892Y-62677560D01*
X68619874Y-62670272D01*
X68614152Y-62669087D01*
X68569021Y-62657500D01*
X68569019Y-62657500D01*
X68548984Y-62657500D01*
X68529586Y-62655973D01*
X68522162Y-62654797D01*
X68509805Y-62652840D01*
X68509804Y-62652840D01*
X68463416Y-62657225D01*
X68457578Y-62657500D01*
X67854438Y-62657500D01*
X67838817Y-62655775D01*
X67838790Y-62656061D01*
X67831028Y-62655326D01*
X67761867Y-62657500D01*
X67732344Y-62657500D01*
X67725473Y-62658367D01*
X67719654Y-62658825D01*
X67673069Y-62660289D01*
X67673063Y-62660290D01*
X67653821Y-62665880D01*
X67634782Y-62669823D01*
X67614912Y-62672334D01*
X67614898Y-62672337D01*
X67571578Y-62689488D01*
X67566053Y-62691380D01*
X67521308Y-62704380D01*
X67521305Y-62704381D01*
X67504061Y-62714579D01*
X67486600Y-62723133D01*
X67467969Y-62730510D01*
X67467957Y-62730517D01*
X67430265Y-62757902D01*
X67425382Y-62761109D01*
X67385275Y-62784829D01*
X67371109Y-62798995D01*
X67356319Y-62811627D01*
X67340109Y-62823404D01*
X67340106Y-62823407D01*
X67310405Y-62859309D01*
X67306472Y-62863631D01*
X67098922Y-63071182D01*
X67037602Y-63104666D01*
X67011243Y-63107500D01*
X66961354Y-63107500D01*
X66928897Y-63114398D01*
X66776197Y-63146855D01*
X66776192Y-63146857D01*
X66603270Y-63223848D01*
X66603265Y-63223851D01*
X66450129Y-63335111D01*
X66323466Y-63475785D01*
X66228821Y-63639715D01*
X66228818Y-63639722D01*
X66198884Y-63731851D01*
X66170326Y-63819744D01*
X66154403Y-63971239D01*
X66151463Y-63999217D01*
X66124878Y-64063831D01*
X66067581Y-64103816D01*
X65997762Y-64106476D01*
X65937588Y-64070966D01*
X65920757Y-64048258D01*
X65883533Y-63983784D01*
X65756871Y-63843112D01*
X65724708Y-63819744D01*
X65603734Y-63731851D01*
X65603729Y-63731848D01*
X65430807Y-63654857D01*
X65430802Y-63654855D01*
X65285001Y-63623865D01*
X65245646Y-63615500D01*
X65056354Y-63615500D01*
X65023897Y-63622398D01*
X64871197Y-63654855D01*
X64871192Y-63654857D01*
X64698270Y-63731848D01*
X64698265Y-63731851D01*
X64545129Y-63843111D01*
X64418466Y-63983785D01*
X64323821Y-64147715D01*
X64323818Y-64147722D01*
X64265327Y-64327740D01*
X64265326Y-64327744D01*
X64245540Y-64516000D01*
X57150500Y-64516000D01*
X57150500Y-59009922D01*
X94020052Y-59009922D01*
X94020053Y-59009928D01*
X94026460Y-59069535D01*
X94076754Y-59204380D01*
X94076758Y-59204387D01*
X94163004Y-59319596D01*
X94163007Y-59319599D01*
X94278216Y-59405845D01*
X94278223Y-59405849D01*
X94413069Y-59456143D01*
X94413068Y-59456143D01*
X94419996Y-59456887D01*
X94472679Y-59462552D01*
X97524332Y-59462551D01*
X97591371Y-59482236D01*
X97637126Y-59535040D01*
X97647652Y-59573588D01*
X97666326Y-59751256D01*
X97666327Y-59751259D01*
X97724818Y-59931277D01*
X97724821Y-59931284D01*
X97819467Y-60095216D01*
X97940401Y-60229526D01*
X97946129Y-60235888D01*
X98099265Y-60347148D01*
X98099270Y-60347151D01*
X98272192Y-60424142D01*
X98272197Y-60424144D01*
X98457354Y-60463500D01*
X98457355Y-60463500D01*
X98646644Y-60463500D01*
X98646646Y-60463500D01*
X98831803Y-60424144D01*
X99004730Y-60347151D01*
X99157871Y-60235888D01*
X99160788Y-60232647D01*
X99163600Y-60229526D01*
X99223087Y-60192879D01*
X99255748Y-60188500D01*
X99876861Y-60188500D01*
X99892481Y-60190224D01*
X99892508Y-60189939D01*
X99900264Y-60190671D01*
X99900271Y-60190673D01*
X99969418Y-60188500D01*
X99998954Y-60188500D01*
X100005832Y-60187630D01*
X100011645Y-60187172D01*
X100058231Y-60185709D01*
X100077473Y-60180117D01*
X100096516Y-60176174D01*
X100116396Y-60173664D01*
X100159726Y-60156507D01*
X100165250Y-60154617D01*
X100169000Y-60153527D01*
X100209994Y-60141618D01*
X100227233Y-60131422D01*
X100244707Y-60122862D01*
X100263331Y-60115488D01*
X100263331Y-60115487D01*
X100263336Y-60115486D01*
X100301053Y-60088082D01*
X100305909Y-60084892D01*
X100346024Y-60061170D01*
X100360193Y-60046999D01*
X100374983Y-60034368D01*
X100391191Y-60022594D01*
X100420903Y-59986676D01*
X100424816Y-59982376D01*
X100908323Y-59498870D01*
X100969646Y-59465385D01*
X100996004Y-59462551D01*
X102009537Y-59462551D01*
X102076576Y-59482236D01*
X102122331Y-59535040D01*
X102132275Y-59604198D01*
X102116924Y-59648551D01*
X102061373Y-59744767D01*
X102061370Y-59744774D01*
X102002879Y-59924792D01*
X102002878Y-59924796D01*
X101983092Y-60113052D01*
X102002878Y-60301308D01*
X102002879Y-60301311D01*
X102061370Y-60481329D01*
X102061373Y-60481336D01*
X102156019Y-60645268D01*
X102282681Y-60785940D01*
X102435817Y-60897200D01*
X102435822Y-60897203D01*
X102608744Y-60974194D01*
X102608749Y-60974196D01*
X102793906Y-61013552D01*
X102793907Y-61013552D01*
X102983196Y-61013552D01*
X102983198Y-61013552D01*
X103168355Y-60974196D01*
X103341282Y-60897203D01*
X103494423Y-60785940D01*
X103621085Y-60645268D01*
X103715731Y-60481336D01*
X103774226Y-60301308D01*
X103794012Y-60113052D01*
X103774226Y-59924796D01*
X103715731Y-59744768D01*
X103621085Y-59580836D01*
X103545618Y-59497022D01*
X103515389Y-59434032D01*
X103513769Y-59414111D01*
X103511084Y-52749698D01*
X103512796Y-52734187D01*
X103512490Y-52734159D01*
X103513223Y-52726392D01*
X103513225Y-52726385D01*
X103511047Y-52657094D01*
X103511036Y-52627450D01*
X103510181Y-52620705D01*
X103509721Y-52614886D01*
X103508262Y-52568425D01*
X103502627Y-52549033D01*
X103498691Y-52530046D01*
X103496153Y-52510014D01*
X103484871Y-52481552D01*
X103479031Y-52466818D01*
X103477128Y-52461265D01*
X103470444Y-52438258D01*
X103464170Y-52416662D01*
X103453892Y-52399283D01*
X103445355Y-52381864D01*
X103437916Y-52363097D01*
X103410588Y-52325515D01*
X103407365Y-52320610D01*
X103395700Y-52300886D01*
X103383722Y-52280632D01*
X103383719Y-52280629D01*
X103383718Y-52280627D01*
X103369453Y-52266363D01*
X103356843Y-52251605D01*
X103344973Y-52235281D01*
X103309159Y-52205677D01*
X103304818Y-52201728D01*
X102944666Y-51841576D01*
X102911181Y-51780253D01*
X102916165Y-51710561D01*
X102933081Y-51679584D01*
X103004345Y-51584387D01*
X103004344Y-51584387D01*
X103004348Y-51584383D01*
X103054643Y-51449535D01*
X103061052Y-51389925D01*
X103061051Y-50294180D01*
X103054643Y-50234569D01*
X103004348Y-50099721D01*
X103004347Y-50099720D01*
X103004345Y-50099716D01*
X102918099Y-49984507D01*
X102918096Y-49984504D01*
X102802887Y-49898258D01*
X102802880Y-49898254D01*
X102668034Y-49847960D01*
X102668035Y-49847960D01*
X102608435Y-49841553D01*
X102608433Y-49841552D01*
X102608425Y-49841552D01*
X102608416Y-49841552D01*
X99512681Y-49841552D01*
X99512675Y-49841553D01*
X99453068Y-49847960D01*
X99318223Y-49898254D01*
X99318216Y-49898258D01*
X99203007Y-49984504D01*
X99176171Y-50020353D01*
X99120237Y-50062223D01*
X99050546Y-50067207D01*
X99026469Y-50059320D01*
X98850359Y-49980909D01*
X98850354Y-49980907D01*
X98704553Y-49949917D01*
X98665198Y-49941552D01*
X98475906Y-49941552D01*
X98443449Y-49948450D01*
X98290749Y-49980907D01*
X98290744Y-49980909D01*
X98117822Y-50057900D01*
X98117819Y-50057902D01*
X98097029Y-50073007D01*
X98031222Y-50096485D01*
X97963168Y-50080658D01*
X97924880Y-50046999D01*
X97878098Y-49984506D01*
X97820719Y-49941552D01*
X97762887Y-49898258D01*
X97762880Y-49898254D01*
X97628034Y-49847960D01*
X97628035Y-49847960D01*
X97568435Y-49841553D01*
X97568433Y-49841552D01*
X97568425Y-49841552D01*
X97568416Y-49841552D01*
X94472681Y-49841552D01*
X94472675Y-49841553D01*
X94413068Y-49847960D01*
X94278223Y-49898254D01*
X94278216Y-49898258D01*
X94163007Y-49984504D01*
X94163004Y-49984507D01*
X94076758Y-50099716D01*
X94076754Y-50099723D01*
X94026460Y-50234569D01*
X94020053Y-50294168D01*
X94020053Y-50294175D01*
X94020052Y-50294187D01*
X94020052Y-51389922D01*
X94020053Y-51389928D01*
X94026460Y-51449535D01*
X94076754Y-51584380D01*
X94076758Y-51584387D01*
X94163004Y-51699596D01*
X94163007Y-51699599D01*
X94278216Y-51785845D01*
X94278223Y-51785849D01*
X94413069Y-51836143D01*
X94413068Y-51836143D01*
X94419996Y-51836887D01*
X94472679Y-51842552D01*
X97568424Y-51842551D01*
X97628035Y-51836143D01*
X97762883Y-51785848D01*
X97878098Y-51699598D01*
X97924881Y-51637102D01*
X97980813Y-51595234D01*
X98050504Y-51590250D01*
X98097031Y-51611098D01*
X98117817Y-51626200D01*
X98117822Y-51626203D01*
X98290744Y-51703194D01*
X98290749Y-51703196D01*
X98475906Y-51742552D01*
X98475907Y-51742552D01*
X98665196Y-51742552D01*
X98665198Y-51742552D01*
X98850355Y-51703196D01*
X99023282Y-51626203D01*
X99023282Y-51626202D01*
X99026469Y-51624784D01*
X99095719Y-51615499D01*
X99158995Y-51645127D01*
X99176171Y-51663751D01*
X99203007Y-51699599D01*
X99318216Y-51785845D01*
X99318223Y-51785849D01*
X99453069Y-51836143D01*
X99453068Y-51836143D01*
X99459996Y-51836887D01*
X99512679Y-51842552D01*
X101125099Y-51842551D01*
X101192138Y-51862236D01*
X101212780Y-51878870D01*
X101503781Y-52169871D01*
X101537266Y-52231194D01*
X101532282Y-52300886D01*
X101490410Y-52356819D01*
X101424946Y-52381236D01*
X101416100Y-52381552D01*
X99512681Y-52381552D01*
X99512675Y-52381553D01*
X99453068Y-52387960D01*
X99318223Y-52438254D01*
X99318216Y-52438258D01*
X99203007Y-52524504D01*
X99176171Y-52560353D01*
X99120237Y-52602223D01*
X99050546Y-52607207D01*
X99026469Y-52599320D01*
X98850359Y-52520909D01*
X98850354Y-52520907D01*
X98704553Y-52489917D01*
X98665198Y-52481552D01*
X98475906Y-52481552D01*
X98443449Y-52488450D01*
X98290749Y-52520907D01*
X98290744Y-52520909D01*
X98117822Y-52597900D01*
X98117819Y-52597902D01*
X98097029Y-52613007D01*
X98031222Y-52636485D01*
X97963168Y-52620658D01*
X97924880Y-52586999D01*
X97878098Y-52524506D01*
X97820719Y-52481552D01*
X97762887Y-52438258D01*
X97762880Y-52438254D01*
X97628034Y-52387960D01*
X97628035Y-52387960D01*
X97568435Y-52381553D01*
X97568433Y-52381552D01*
X97568425Y-52381552D01*
X97568416Y-52381552D01*
X94472681Y-52381552D01*
X94472675Y-52381553D01*
X94413068Y-52387960D01*
X94278223Y-52438254D01*
X94278216Y-52438258D01*
X94163007Y-52524504D01*
X94163004Y-52524507D01*
X94076758Y-52639716D01*
X94076754Y-52639723D01*
X94026460Y-52774569D01*
X94020053Y-52834168D01*
X94020052Y-52834187D01*
X94020052Y-53929922D01*
X94020053Y-53929928D01*
X94026460Y-53989535D01*
X94076754Y-54124380D01*
X94076758Y-54124387D01*
X94163004Y-54239596D01*
X94163007Y-54239599D01*
X94278216Y-54325845D01*
X94278223Y-54325849D01*
X94413069Y-54376143D01*
X94413068Y-54376143D01*
X94419996Y-54376887D01*
X94472679Y-54382552D01*
X97568424Y-54382551D01*
X97628035Y-54376143D01*
X97762883Y-54325848D01*
X97878098Y-54239598D01*
X97924881Y-54177102D01*
X97980813Y-54135234D01*
X98050504Y-54130250D01*
X98097031Y-54151098D01*
X98117817Y-54166200D01*
X98117822Y-54166203D01*
X98290744Y-54243194D01*
X98290749Y-54243196D01*
X98475906Y-54282552D01*
X98475907Y-54282552D01*
X98665196Y-54282552D01*
X98665198Y-54282552D01*
X98850355Y-54243196D01*
X99023282Y-54166203D01*
X99023282Y-54166202D01*
X99026469Y-54164784D01*
X99095719Y-54155499D01*
X99158995Y-54185127D01*
X99176171Y-54203751D01*
X99203004Y-54239596D01*
X99203006Y-54239598D01*
X99304711Y-54315734D01*
X99346582Y-54371668D01*
X99351566Y-54441360D01*
X99348331Y-54453319D01*
X99317327Y-54548740D01*
X99317326Y-54548744D01*
X99297540Y-54737000D01*
X99315195Y-54904981D01*
X99302625Y-54973711D01*
X99266187Y-55017207D01*
X99203006Y-55064505D01*
X99176171Y-55100353D01*
X99120237Y-55142223D01*
X99050546Y-55147207D01*
X99026469Y-55139320D01*
X98850359Y-55060909D01*
X98850354Y-55060907D01*
X98704553Y-55029917D01*
X98665198Y-55021552D01*
X98475906Y-55021552D01*
X98443449Y-55028450D01*
X98290749Y-55060907D01*
X98290744Y-55060909D01*
X98117822Y-55137900D01*
X98117819Y-55137902D01*
X98097029Y-55153007D01*
X98031222Y-55176485D01*
X97963168Y-55160658D01*
X97924880Y-55126999D01*
X97878098Y-55064506D01*
X97814915Y-55017207D01*
X97762887Y-54978258D01*
X97762880Y-54978254D01*
X97628034Y-54927960D01*
X97628035Y-54927960D01*
X97568435Y-54921553D01*
X97568433Y-54921552D01*
X97568425Y-54921552D01*
X97568416Y-54921552D01*
X94472681Y-54921552D01*
X94472675Y-54921553D01*
X94413068Y-54927960D01*
X94278223Y-54978254D01*
X94278216Y-54978258D01*
X94163007Y-55064504D01*
X94163004Y-55064507D01*
X94076758Y-55179716D01*
X94076754Y-55179723D01*
X94026460Y-55314569D01*
X94020053Y-55374168D01*
X94020052Y-55374187D01*
X94020052Y-56469922D01*
X94020053Y-56469928D01*
X94026460Y-56529535D01*
X94076754Y-56664380D01*
X94076758Y-56664387D01*
X94163004Y-56779596D01*
X94163007Y-56779599D01*
X94278216Y-56865845D01*
X94278223Y-56865849D01*
X94413069Y-56916143D01*
X94413068Y-56916143D01*
X94419996Y-56916887D01*
X94472679Y-56922552D01*
X97568424Y-56922551D01*
X97628035Y-56916143D01*
X97762883Y-56865848D01*
X97878098Y-56779598D01*
X97924881Y-56717102D01*
X97980813Y-56675234D01*
X98050504Y-56670250D01*
X98097031Y-56691098D01*
X98117817Y-56706200D01*
X98117822Y-56706203D01*
X98290744Y-56783194D01*
X98290749Y-56783196D01*
X98475906Y-56822552D01*
X98475907Y-56822552D01*
X98665196Y-56822552D01*
X98665198Y-56822552D01*
X98850355Y-56783196D01*
X99023282Y-56706203D01*
X99023282Y-56706202D01*
X99026469Y-56704784D01*
X99095719Y-56695499D01*
X99158995Y-56725127D01*
X99176171Y-56743751D01*
X99203004Y-56779596D01*
X99203006Y-56779598D01*
X99304711Y-56855734D01*
X99346582Y-56911668D01*
X99351566Y-56981360D01*
X99348331Y-56993319D01*
X99317327Y-57088740D01*
X99317326Y-57088744D01*
X99308343Y-57174214D01*
X99297540Y-57277000D01*
X99315195Y-57444981D01*
X99302625Y-57513711D01*
X99266187Y-57557207D01*
X99203006Y-57604505D01*
X99176171Y-57640353D01*
X99120237Y-57682223D01*
X99050546Y-57687207D01*
X99026469Y-57679320D01*
X98850359Y-57600909D01*
X98850354Y-57600907D01*
X98704553Y-57569917D01*
X98665198Y-57561552D01*
X98475906Y-57561552D01*
X98443449Y-57568450D01*
X98290749Y-57600907D01*
X98290744Y-57600909D01*
X98117822Y-57677900D01*
X98117819Y-57677902D01*
X98097029Y-57693007D01*
X98031222Y-57716485D01*
X97963168Y-57700658D01*
X97924880Y-57666999D01*
X97878098Y-57604506D01*
X97814915Y-57557207D01*
X97762887Y-57518258D01*
X97762880Y-57518254D01*
X97628034Y-57467960D01*
X97628035Y-57467960D01*
X97568435Y-57461553D01*
X97568433Y-57461552D01*
X97568425Y-57461552D01*
X97568416Y-57461552D01*
X94472681Y-57461552D01*
X94472675Y-57461553D01*
X94413068Y-57467960D01*
X94278223Y-57518254D01*
X94278216Y-57518258D01*
X94163007Y-57604504D01*
X94163004Y-57604507D01*
X94076758Y-57719716D01*
X94076754Y-57719723D01*
X94026460Y-57854569D01*
X94020053Y-57914168D01*
X94020052Y-57914187D01*
X94020052Y-59009922D01*
X57150500Y-59009922D01*
X57150500Y-56642000D01*
X62340540Y-56642000D01*
X62360326Y-56830256D01*
X62360327Y-56830259D01*
X62418818Y-57010277D01*
X62418821Y-57010284D01*
X62513467Y-57174216D01*
X62640129Y-57314888D01*
X62793265Y-57426148D01*
X62793270Y-57426151D01*
X62966192Y-57503142D01*
X62966197Y-57503144D01*
X63151354Y-57542500D01*
X63210547Y-57542500D01*
X63277586Y-57562185D01*
X63298228Y-57578819D01*
X63385249Y-57665840D01*
X63395074Y-57678103D01*
X63395295Y-57677921D01*
X63400266Y-57683930D01*
X63426269Y-57708347D01*
X63450687Y-57731278D01*
X63471581Y-57752172D01*
X63477063Y-57756425D01*
X63481495Y-57760209D01*
X63515470Y-57792114D01*
X63533028Y-57801766D01*
X63549287Y-57812447D01*
X63565116Y-57824725D01*
X63607890Y-57843234D01*
X63613108Y-57845790D01*
X63653960Y-57868249D01*
X63673368Y-57873232D01*
X63691769Y-57879532D01*
X63710156Y-57887489D01*
X63753540Y-57894360D01*
X63756171Y-57894777D01*
X63761891Y-57895961D01*
X63807033Y-57907552D01*
X63827068Y-57907552D01*
X63846466Y-57909078D01*
X63866246Y-57912211D01*
X63866247Y-57912212D01*
X63866247Y-57912211D01*
X63866248Y-57912212D01*
X63912636Y-57907827D01*
X63918474Y-57907552D01*
X66818409Y-57907552D01*
X66885448Y-57927237D01*
X66931203Y-57980041D01*
X66941147Y-58049199D01*
X66940221Y-58054739D01*
X66928176Y-58117882D01*
X66928176Y-58117885D01*
X66928176Y-58117886D01*
X66938496Y-58281912D01*
X66989284Y-58438223D01*
X66989286Y-58438227D01*
X67077350Y-58576992D01*
X67197155Y-58689497D01*
X67197163Y-58689503D01*
X67277412Y-58733620D01*
X67341184Y-58768679D01*
X67500375Y-58809552D01*
X67500379Y-58809552D01*
X67623475Y-58809552D01*
X67623477Y-58809552D01*
X67623482Y-58809551D01*
X67623486Y-58809551D01*
X67636726Y-58807878D01*
X67745610Y-58794123D01*
X67898423Y-58733620D01*
X67898430Y-58733615D01*
X68031387Y-58637017D01*
X68031387Y-58637015D01*
X68031389Y-58637015D01*
X68136152Y-58510378D01*
X68206131Y-58361665D01*
X68236928Y-58200222D01*
X68226806Y-58039338D01*
X68242242Y-57971195D01*
X68292069Y-57922215D01*
X68350561Y-57907552D01*
X86780205Y-57907552D01*
X86795825Y-57909276D01*
X86795852Y-57908991D01*
X86803608Y-57909723D01*
X86803615Y-57909725D01*
X86872762Y-57907552D01*
X86902298Y-57907552D01*
X86909176Y-57906682D01*
X86914989Y-57906224D01*
X86961575Y-57904761D01*
X86980817Y-57899169D01*
X86999860Y-57895226D01*
X87019740Y-57892716D01*
X87063070Y-57875559D01*
X87068594Y-57873669D01*
X87072344Y-57872579D01*
X87113338Y-57860670D01*
X87130577Y-57850474D01*
X87148051Y-57841914D01*
X87166675Y-57834540D01*
X87166675Y-57834539D01*
X87166680Y-57834538D01*
X87204397Y-57807134D01*
X87209253Y-57803944D01*
X87249368Y-57780222D01*
X87263537Y-57766051D01*
X87278327Y-57753420D01*
X87294535Y-57741646D01*
X87324243Y-57705733D01*
X87328155Y-57701433D01*
X87450772Y-57578818D01*
X87512096Y-57545334D01*
X87538453Y-57542500D01*
X87597644Y-57542500D01*
X87597646Y-57542500D01*
X87782803Y-57503144D01*
X87955730Y-57426151D01*
X88108871Y-57314888D01*
X88235533Y-57174216D01*
X88330179Y-57010284D01*
X88388674Y-56830256D01*
X88408460Y-56642000D01*
X88388674Y-56453744D01*
X88330179Y-56273716D01*
X88235533Y-56109784D01*
X88108871Y-55969112D01*
X88108870Y-55969111D01*
X87955734Y-55857851D01*
X87955729Y-55857848D01*
X87782807Y-55780857D01*
X87782802Y-55780855D01*
X87637001Y-55749865D01*
X87597646Y-55741500D01*
X87408354Y-55741500D01*
X87375897Y-55748398D01*
X87223197Y-55780855D01*
X87223192Y-55780857D01*
X87050270Y-55857848D01*
X87050265Y-55857851D01*
X86897129Y-55969111D01*
X86770466Y-56109785D01*
X86675821Y-56273715D01*
X86675818Y-56273722D01*
X86617327Y-56453740D01*
X86617326Y-56453744D01*
X86609360Y-56529535D01*
X86607681Y-56545514D01*
X86581096Y-56610129D01*
X86523799Y-56650113D01*
X86484360Y-56656552D01*
X64264640Y-56656552D01*
X64197601Y-56636867D01*
X64151846Y-56584063D01*
X64141319Y-56545514D01*
X64131674Y-56453744D01*
X64073179Y-56273716D01*
X63978533Y-56109784D01*
X63851871Y-55969112D01*
X63851870Y-55969111D01*
X63698734Y-55857851D01*
X63698729Y-55857848D01*
X63525807Y-55780857D01*
X63525802Y-55780855D01*
X63380001Y-55749865D01*
X63340646Y-55741500D01*
X63151354Y-55741500D01*
X63118897Y-55748398D01*
X62966197Y-55780855D01*
X62966192Y-55780857D01*
X62793270Y-55857848D01*
X62793265Y-55857851D01*
X62640129Y-55969111D01*
X62513466Y-56109785D01*
X62418821Y-56273715D01*
X62418818Y-56273722D01*
X62360327Y-56453740D01*
X62360326Y-56453744D01*
X62340540Y-56642000D01*
X57150500Y-56642000D01*
X57150500Y-53164885D01*
X63499176Y-53164885D01*
X63509496Y-53328912D01*
X63560284Y-53485223D01*
X63560286Y-53485227D01*
X63648350Y-53623992D01*
X63768155Y-53736497D01*
X63768163Y-53736503D01*
X63848412Y-53780620D01*
X63912184Y-53815679D01*
X64071375Y-53856552D01*
X64071379Y-53856552D01*
X64194475Y-53856552D01*
X64194477Y-53856552D01*
X64194482Y-53856551D01*
X64194486Y-53856551D01*
X64207726Y-53854878D01*
X64316610Y-53841123D01*
X64469423Y-53780620D01*
X64469430Y-53780615D01*
X64602387Y-53684017D01*
X64602387Y-53684015D01*
X64602389Y-53684015D01*
X64707152Y-53557378D01*
X64777131Y-53408665D01*
X64807928Y-53247222D01*
X64802748Y-53164885D01*
X66928176Y-53164885D01*
X66938496Y-53328912D01*
X66989284Y-53485223D01*
X66989286Y-53485227D01*
X67077350Y-53623992D01*
X67197155Y-53736497D01*
X67197163Y-53736503D01*
X67277412Y-53780620D01*
X67341184Y-53815679D01*
X67500375Y-53856552D01*
X67500379Y-53856552D01*
X67623475Y-53856552D01*
X67623477Y-53856552D01*
X67623482Y-53856551D01*
X67623486Y-53856551D01*
X67636726Y-53854878D01*
X67745610Y-53841123D01*
X67898423Y-53780620D01*
X67898430Y-53780615D01*
X68031387Y-53684017D01*
X68031387Y-53684015D01*
X68031389Y-53684015D01*
X68136152Y-53557378D01*
X68206131Y-53408665D01*
X68236928Y-53247222D01*
X68226608Y-53083192D01*
X68175820Y-52926881D01*
X68087754Y-52788112D01*
X68046853Y-52749703D01*
X67967948Y-52675606D01*
X67967940Y-52675600D01*
X67823923Y-52596426D01*
X67823913Y-52596423D01*
X67664732Y-52555552D01*
X67664729Y-52555552D01*
X67541627Y-52555552D01*
X67541617Y-52555552D01*
X67419494Y-52570981D01*
X67419491Y-52570981D01*
X67266682Y-52631483D01*
X67266673Y-52631488D01*
X67133716Y-52728086D01*
X67133714Y-52728089D01*
X67028952Y-52854725D01*
X66958972Y-53003439D01*
X66943759Y-53083191D01*
X66928176Y-53164882D01*
X66928176Y-53164884D01*
X66928176Y-53164885D01*
X64802748Y-53164885D01*
X64797608Y-53083192D01*
X64746820Y-52926881D01*
X64658754Y-52788112D01*
X64617853Y-52749703D01*
X64538948Y-52675606D01*
X64538940Y-52675600D01*
X64394923Y-52596426D01*
X64394913Y-52596423D01*
X64235732Y-52555552D01*
X64235729Y-52555552D01*
X64112627Y-52555552D01*
X64112617Y-52555552D01*
X63990494Y-52570981D01*
X63990491Y-52570981D01*
X63837682Y-52631483D01*
X63837673Y-52631488D01*
X63704716Y-52728086D01*
X63704714Y-52728089D01*
X63599952Y-52854725D01*
X63529972Y-53003439D01*
X63514759Y-53083191D01*
X63499176Y-53164882D01*
X63499176Y-53164884D01*
X63499176Y-53164885D01*
X57150500Y-53164885D01*
X57150500Y-48387000D01*
X68944540Y-48387000D01*
X68964326Y-48575256D01*
X68964327Y-48575259D01*
X69022818Y-48755277D01*
X69022821Y-48755284D01*
X69117467Y-48919216D01*
X69244129Y-49059888D01*
X69397265Y-49171148D01*
X69397270Y-49171151D01*
X69570192Y-49248142D01*
X69570197Y-49248144D01*
X69755354Y-49287500D01*
X69755355Y-49287500D01*
X69944644Y-49287500D01*
X69944646Y-49287500D01*
X70129803Y-49248144D01*
X70302730Y-49171151D01*
X70455871Y-49059888D01*
X70582533Y-48919216D01*
X70677179Y-48755284D01*
X70735674Y-48575256D01*
X70755460Y-48387000D01*
X70735674Y-48198744D01*
X70677179Y-48018716D01*
X70582533Y-47854784D01*
X70507350Y-47771284D01*
X70477120Y-47708292D01*
X70475500Y-47688312D01*
X70475500Y-41509751D01*
X70495185Y-41442712D01*
X70511819Y-41422070D01*
X73199019Y-38734871D01*
X73260342Y-38701386D01*
X73286700Y-38698552D01*
X82542498Y-38698552D01*
X82609537Y-38718237D01*
X82655292Y-38771041D01*
X82665236Y-38840199D01*
X82636211Y-38903755D01*
X82616808Y-38921820D01*
X82612808Y-38924814D01*
X82526649Y-39039906D01*
X82526645Y-39039913D01*
X82476403Y-39174620D01*
X82476401Y-39174627D01*
X82470000Y-39234155D01*
X82470000Y-39882000D01*
X83386314Y-39882000D01*
X83360507Y-39922156D01*
X83320000Y-40060111D01*
X83320000Y-40203889D01*
X83360507Y-40341844D01*
X83386314Y-40382000D01*
X82470000Y-40382000D01*
X82470000Y-41029844D01*
X82476401Y-41089372D01*
X82476403Y-41089379D01*
X82526645Y-41224086D01*
X82526649Y-41224093D01*
X82612809Y-41339187D01*
X82612812Y-41339190D01*
X82727906Y-41425350D01*
X82727913Y-41425354D01*
X82862620Y-41475596D01*
X82862627Y-41475598D01*
X82922155Y-41481999D01*
X82922172Y-41482000D01*
X83570000Y-41482000D01*
X83570000Y-40567501D01*
X83677685Y-40616680D01*
X83784237Y-40632000D01*
X83855763Y-40632000D01*
X83962315Y-40616680D01*
X84070000Y-40567501D01*
X84070000Y-41482000D01*
X84717828Y-41482000D01*
X84717844Y-41481999D01*
X84777372Y-41475598D01*
X84777379Y-41475596D01*
X84912086Y-41425354D01*
X84912093Y-41425350D01*
X85027187Y-41339190D01*
X85027190Y-41339187D01*
X85113350Y-41224093D01*
X85113354Y-41224086D01*
X85162422Y-41092529D01*
X85204293Y-41036595D01*
X85269757Y-41012178D01*
X85338030Y-41027030D01*
X85366285Y-41048181D01*
X85488599Y-41170495D01*
X85565135Y-41224086D01*
X85682165Y-41306032D01*
X85682167Y-41306033D01*
X85682170Y-41306035D01*
X85896337Y-41405903D01*
X86124592Y-41467063D01*
X86295319Y-41482000D01*
X86359999Y-41487659D01*
X86360000Y-41487659D01*
X86360001Y-41487659D01*
X86424681Y-41482000D01*
X86595408Y-41467063D01*
X86823663Y-41405903D01*
X87037830Y-41306035D01*
X87037832Y-41306033D01*
X87041852Y-41303712D01*
X87109750Y-41287232D01*
X87175779Y-41310076D01*
X87210595Y-41347970D01*
X87226825Y-41375414D01*
X87226833Y-41375424D01*
X87240990Y-41389580D01*
X87253628Y-41404376D01*
X87265405Y-41420586D01*
X87265406Y-41420587D01*
X87301309Y-41450288D01*
X87305620Y-41454210D01*
X88017806Y-42166396D01*
X88723038Y-42871628D01*
X88756523Y-42932951D01*
X88758678Y-42946347D01*
X88766139Y-43017338D01*
X88776326Y-43114256D01*
X88776327Y-43114259D01*
X88834818Y-43294277D01*
X88834821Y-43294284D01*
X88929467Y-43458216D01*
X89056129Y-43598888D01*
X89209265Y-43710148D01*
X89209270Y-43710151D01*
X89382192Y-43787142D01*
X89382197Y-43787144D01*
X89567354Y-43826500D01*
X89567355Y-43826500D01*
X89756644Y-43826500D01*
X89756646Y-43826500D01*
X89941803Y-43787144D01*
X90114730Y-43710151D01*
X90267871Y-43598888D01*
X90394533Y-43458216D01*
X90489179Y-43294284D01*
X90547674Y-43114256D01*
X90567460Y-42926000D01*
X90547674Y-42737744D01*
X90489179Y-42557716D01*
X90394533Y-42393784D01*
X90267871Y-42253112D01*
X90229437Y-42225188D01*
X90114734Y-42141851D01*
X90114729Y-42141848D01*
X89941807Y-42064857D01*
X89941802Y-42064855D01*
X89796001Y-42033865D01*
X89756646Y-42025500D01*
X89756645Y-42025500D01*
X89697452Y-42025500D01*
X89630413Y-42005815D01*
X89609771Y-41989181D01*
X89249614Y-41629023D01*
X89216129Y-41567700D01*
X89221113Y-41498008D01*
X89262985Y-41442075D01*
X89305203Y-41421567D01*
X89308865Y-41420586D01*
X89346772Y-41410429D01*
X89363653Y-41405906D01*
X89363654Y-41405905D01*
X89363663Y-41405903D01*
X89577830Y-41306035D01*
X89771401Y-41170495D01*
X89938495Y-41003401D01*
X90068425Y-40817842D01*
X90123002Y-40774217D01*
X90192500Y-40767023D01*
X90254855Y-40798546D01*
X90271575Y-40817842D01*
X90401500Y-41003395D01*
X90401505Y-41003401D01*
X90568599Y-41170495D01*
X90645135Y-41224086D01*
X90762165Y-41306032D01*
X90762167Y-41306033D01*
X90762170Y-41306035D01*
X90976337Y-41405903D01*
X91204592Y-41467063D01*
X91375319Y-41482000D01*
X91439999Y-41487659D01*
X91440000Y-41487659D01*
X91440001Y-41487659D01*
X91504681Y-41482000D01*
X91675408Y-41467063D01*
X91903663Y-41405903D01*
X92117830Y-41306035D01*
X92311401Y-41170495D01*
X92478495Y-41003401D01*
X92608425Y-40817842D01*
X92663002Y-40774217D01*
X92732500Y-40767023D01*
X92794855Y-40798546D01*
X92811575Y-40817842D01*
X92941500Y-41003395D01*
X92941505Y-41003401D01*
X93108599Y-41170495D01*
X93185135Y-41224086D01*
X93302165Y-41306032D01*
X93302167Y-41306033D01*
X93302170Y-41306035D01*
X93516337Y-41405903D01*
X93744592Y-41467063D01*
X93915319Y-41482000D01*
X93979999Y-41487659D01*
X93980000Y-41487659D01*
X93980001Y-41487659D01*
X94044681Y-41482000D01*
X94215408Y-41467063D01*
X94443663Y-41405903D01*
X94657830Y-41306035D01*
X94851401Y-41170495D01*
X95018495Y-41003401D01*
X95148425Y-40817842D01*
X95203002Y-40774217D01*
X95272500Y-40767023D01*
X95334855Y-40798546D01*
X95351575Y-40817842D01*
X95481500Y-41003395D01*
X95481505Y-41003401D01*
X95648599Y-41170495D01*
X95725135Y-41224086D01*
X95842165Y-41306032D01*
X95842167Y-41306033D01*
X95842170Y-41306035D01*
X96056337Y-41405903D01*
X96284592Y-41467063D01*
X96455319Y-41482000D01*
X96519999Y-41487659D01*
X96520000Y-41487659D01*
X96520001Y-41487659D01*
X96584681Y-41482000D01*
X96755408Y-41467063D01*
X96983663Y-41405903D01*
X97197830Y-41306035D01*
X97391401Y-41170495D01*
X97558495Y-41003401D01*
X97694035Y-40809830D01*
X97773228Y-40640000D01*
X123929922Y-40640000D01*
X123950219Y-41027287D01*
X124010886Y-41410323D01*
X124010887Y-41410330D01*
X124111262Y-41784936D01*
X124250244Y-42146994D01*
X124426310Y-42492543D01*
X124637531Y-42817793D01*
X124846095Y-43075350D01*
X124846096Y-43075350D01*
X126337266Y-41584180D01*
X126500130Y-41774870D01*
X126690819Y-41937733D01*
X125199648Y-43428903D01*
X125199649Y-43428904D01*
X125457206Y-43637468D01*
X125782456Y-43848689D01*
X126128005Y-44024755D01*
X126490063Y-44163737D01*
X126864669Y-44264112D01*
X126864676Y-44264113D01*
X127247712Y-44324780D01*
X127634999Y-44345078D01*
X127635001Y-44345078D01*
X128022287Y-44324780D01*
X128405323Y-44264113D01*
X128405330Y-44264112D01*
X128779936Y-44163737D01*
X129141994Y-44024755D01*
X129487543Y-43848689D01*
X129812783Y-43637476D01*
X129812785Y-43637475D01*
X130070349Y-43428902D01*
X128579180Y-41937733D01*
X128769870Y-41774870D01*
X128932733Y-41584180D01*
X130423902Y-43075349D01*
X130632475Y-42817785D01*
X130632476Y-42817783D01*
X130843689Y-42492543D01*
X131019755Y-42146994D01*
X131158737Y-41784936D01*
X131259112Y-41410330D01*
X131259113Y-41410323D01*
X131319780Y-41027287D01*
X131340078Y-40640000D01*
X131340078Y-40639999D01*
X131319780Y-40252712D01*
X131259113Y-39869676D01*
X131259112Y-39869669D01*
X131158737Y-39495063D01*
X131019755Y-39133005D01*
X130843689Y-38787456D01*
X130632468Y-38462206D01*
X130423904Y-38204649D01*
X130423903Y-38204648D01*
X128932732Y-39695818D01*
X128769870Y-39505130D01*
X128579180Y-39342266D01*
X130070350Y-37851096D01*
X130070350Y-37851095D01*
X129812793Y-37642531D01*
X129487543Y-37431310D01*
X129141994Y-37255244D01*
X128779936Y-37116262D01*
X128405330Y-37015887D01*
X128405323Y-37015886D01*
X128022287Y-36955219D01*
X127635001Y-36934922D01*
X127634999Y-36934922D01*
X127247712Y-36955219D01*
X126864676Y-37015886D01*
X126864669Y-37015887D01*
X126490063Y-37116262D01*
X126128005Y-37255244D01*
X125782456Y-37431310D01*
X125457206Y-37642531D01*
X125199648Y-37851095D01*
X125199648Y-37851096D01*
X126690819Y-39342266D01*
X126500130Y-39505130D01*
X126337266Y-39695818D01*
X124846096Y-38204648D01*
X124846095Y-38204648D01*
X124637531Y-38462206D01*
X124426310Y-38787456D01*
X124250244Y-39133005D01*
X124111262Y-39495063D01*
X124010887Y-39869669D01*
X124010886Y-39869676D01*
X123950219Y-40252712D01*
X123929922Y-40639999D01*
X123929922Y-40640000D01*
X97773228Y-40640000D01*
X97793903Y-40595663D01*
X97855063Y-40367408D01*
X97875659Y-40132000D01*
X97855063Y-39896592D01*
X97793903Y-39668337D01*
X97694035Y-39454171D01*
X97688425Y-39446158D01*
X97558494Y-39260597D01*
X97391402Y-39093506D01*
X97391395Y-39093501D01*
X97374227Y-39081480D01*
X97314854Y-39039906D01*
X97197834Y-38957967D01*
X97197830Y-38957965D01*
X97148440Y-38934934D01*
X96983663Y-38858097D01*
X96983659Y-38858096D01*
X96983655Y-38858094D01*
X96755413Y-38796938D01*
X96755403Y-38796936D01*
X96520001Y-38776341D01*
X96519999Y-38776341D01*
X96284596Y-38796936D01*
X96284586Y-38796938D01*
X96056344Y-38858094D01*
X96056335Y-38858098D01*
X95842171Y-38957964D01*
X95842169Y-38957965D01*
X95648597Y-39093505D01*
X95481505Y-39260597D01*
X95351575Y-39446158D01*
X95296998Y-39489783D01*
X95227500Y-39496977D01*
X95165145Y-39465454D01*
X95148425Y-39446158D01*
X95018494Y-39260597D01*
X94851402Y-39093506D01*
X94851395Y-39093501D01*
X94834227Y-39081480D01*
X94774854Y-39039906D01*
X94657834Y-38957967D01*
X94657830Y-38957965D01*
X94608440Y-38934934D01*
X94443663Y-38858097D01*
X94443659Y-38858096D01*
X94443655Y-38858094D01*
X94215413Y-38796938D01*
X94215403Y-38796936D01*
X93980001Y-38776341D01*
X93979999Y-38776341D01*
X93744596Y-38796936D01*
X93744586Y-38796938D01*
X93516344Y-38858094D01*
X93516335Y-38858098D01*
X93302171Y-38957964D01*
X93302169Y-38957965D01*
X93108597Y-39093505D01*
X92941505Y-39260597D01*
X92811575Y-39446158D01*
X92756998Y-39489783D01*
X92687500Y-39496977D01*
X92625145Y-39465454D01*
X92608425Y-39446158D01*
X92478494Y-39260597D01*
X92311402Y-39093506D01*
X92311395Y-39093501D01*
X92294227Y-39081480D01*
X92234854Y-39039906D01*
X92117834Y-38957967D01*
X92117830Y-38957965D01*
X92068440Y-38934934D01*
X91903663Y-38858097D01*
X91903659Y-38858096D01*
X91903655Y-38858094D01*
X91675413Y-38796938D01*
X91675403Y-38796936D01*
X91440001Y-38776341D01*
X91439999Y-38776341D01*
X91204596Y-38796936D01*
X91204586Y-38796938D01*
X90976344Y-38858094D01*
X90976335Y-38858098D01*
X90762171Y-38957964D01*
X90762169Y-38957965D01*
X90568597Y-39093505D01*
X90401505Y-39260597D01*
X90271575Y-39446158D01*
X90216998Y-39489783D01*
X90147500Y-39496977D01*
X90085145Y-39465454D01*
X90068425Y-39446158D01*
X89938494Y-39260597D01*
X89771402Y-39093506D01*
X89771395Y-39093501D01*
X89754227Y-39081480D01*
X89694854Y-39039906D01*
X89577834Y-38957967D01*
X89577830Y-38957965D01*
X89528440Y-38934934D01*
X89363663Y-38858097D01*
X89363659Y-38858096D01*
X89363655Y-38858094D01*
X89135413Y-38796938D01*
X89135403Y-38796936D01*
X88900001Y-38776341D01*
X88899999Y-38776341D01*
X88664596Y-38796936D01*
X88664586Y-38796938D01*
X88436344Y-38858094D01*
X88436335Y-38858097D01*
X88222172Y-38957964D01*
X88131001Y-39021802D01*
X88064795Y-39044129D01*
X87997028Y-39027117D01*
X87972198Y-39007907D01*
X86653556Y-37689264D01*
X86643733Y-37677002D01*
X86643512Y-37677186D01*
X86638539Y-37671175D01*
X86619912Y-37653683D01*
X86588117Y-37623825D01*
X86577672Y-37613380D01*
X86567228Y-37602935D01*
X86561739Y-37598677D01*
X86557314Y-37594899D01*
X86523335Y-37562990D01*
X86523333Y-37562988D01*
X86523330Y-37562987D01*
X86505782Y-37553340D01*
X86489516Y-37542656D01*
X86473686Y-37530377D01*
X86430921Y-37511870D01*
X86425675Y-37509300D01*
X86384846Y-37486855D01*
X86384845Y-37486854D01*
X86365446Y-37481874D01*
X86347034Y-37475570D01*
X86328651Y-37467614D01*
X86328645Y-37467612D01*
X86282627Y-37460324D01*
X86276905Y-37459139D01*
X86231774Y-37447552D01*
X86231772Y-37447552D01*
X86211737Y-37447552D01*
X86192339Y-37446025D01*
X86184915Y-37444849D01*
X86172558Y-37442892D01*
X86172557Y-37442892D01*
X86126169Y-37447277D01*
X86120331Y-37447552D01*
X73058990Y-37447552D01*
X73043369Y-37445827D01*
X73043343Y-37446113D01*
X73035581Y-37445379D01*
X73035580Y-37445379D01*
X72966433Y-37447552D01*
X72936896Y-37447552D01*
X72930013Y-37448421D01*
X72924196Y-37448878D01*
X72877620Y-37450342D01*
X72858376Y-37455933D01*
X72839326Y-37459877D01*
X72819458Y-37462386D01*
X72776131Y-37479540D01*
X72770605Y-37481431D01*
X72725861Y-37494431D01*
X72725857Y-37494433D01*
X72708613Y-37504631D01*
X72691152Y-37513185D01*
X72672521Y-37520562D01*
X72672509Y-37520569D01*
X72634817Y-37547954D01*
X72629934Y-37551161D01*
X72589827Y-37574881D01*
X72575661Y-37589047D01*
X72560871Y-37601679D01*
X72544661Y-37613456D01*
X72544658Y-37613459D01*
X72514957Y-37649361D01*
X72511024Y-37653683D01*
X69466208Y-40698498D01*
X69453951Y-40708319D01*
X69454134Y-40708540D01*
X69448123Y-40713512D01*
X69400772Y-40763935D01*
X69379889Y-40784818D01*
X69379877Y-40784831D01*
X69375621Y-40790316D01*
X69371837Y-40794746D01*
X69339937Y-40828717D01*
X69339936Y-40828719D01*
X69330284Y-40846275D01*
X69319610Y-40862525D01*
X69307329Y-40878360D01*
X69307324Y-40878367D01*
X69288815Y-40921137D01*
X69286245Y-40926383D01*
X69263803Y-40967205D01*
X69258822Y-40986606D01*
X69252521Y-41005009D01*
X69244562Y-41023401D01*
X69244561Y-41023404D01*
X69237271Y-41069426D01*
X69236087Y-41075145D01*
X69224501Y-41120271D01*
X69224500Y-41120281D01*
X69224500Y-41140315D01*
X69222973Y-41159714D01*
X69219840Y-41179493D01*
X69219840Y-41179494D01*
X69224225Y-41225882D01*
X69224500Y-41231720D01*
X69224500Y-47688312D01*
X69204815Y-47755351D01*
X69192650Y-47771284D01*
X69117466Y-47854784D01*
X69022821Y-48018715D01*
X69022818Y-48018722D01*
X68964327Y-48198740D01*
X68964326Y-48198744D01*
X68944540Y-48387000D01*
X57150500Y-48387000D01*
X57150500Y-40640000D01*
X57819422Y-40640000D01*
X57839722Y-41027339D01*
X57899681Y-41405905D01*
X57900398Y-41410433D01*
X57942537Y-41567700D01*
X58000788Y-41785094D01*
X58139787Y-42147197D01*
X58315877Y-42492793D01*
X58527122Y-42818082D01*
X58630989Y-42946347D01*
X58771219Y-43119516D01*
X59045484Y-43393781D01*
X59045488Y-43393784D01*
X59346917Y-43637877D01*
X59672206Y-43849122D01*
X59672211Y-43849125D01*
X60017806Y-44025214D01*
X60379913Y-44164214D01*
X60754567Y-44264602D01*
X61137662Y-44325278D01*
X61503576Y-44344455D01*
X61524999Y-44345578D01*
X61525000Y-44345578D01*
X61525001Y-44345578D01*
X61545301Y-44344514D01*
X61912338Y-44325278D01*
X62295433Y-44264602D01*
X62670087Y-44164214D01*
X63032194Y-44025214D01*
X63377789Y-43849125D01*
X63703084Y-43637876D01*
X64004516Y-43393781D01*
X64278781Y-43119516D01*
X64522876Y-42818084D01*
X64734125Y-42492789D01*
X64910214Y-42147194D01*
X65049214Y-41785087D01*
X65149602Y-41410433D01*
X65210278Y-41027338D01*
X65230578Y-40640000D01*
X65210278Y-40252662D01*
X65149602Y-39869567D01*
X65049214Y-39494913D01*
X64910214Y-39132806D01*
X64734125Y-38787211D01*
X64676549Y-38698552D01*
X64522877Y-38461917D01*
X64278784Y-38160488D01*
X64278781Y-38160484D01*
X64004516Y-37886219D01*
X63738959Y-37671175D01*
X63703082Y-37642122D01*
X63377793Y-37430877D01*
X63032197Y-37254787D01*
X62670094Y-37115788D01*
X62670087Y-37115786D01*
X62295433Y-37015398D01*
X62295429Y-37015397D01*
X62295428Y-37015397D01*
X61912339Y-36954722D01*
X61525001Y-36934422D01*
X61524999Y-36934422D01*
X61137660Y-36954722D01*
X60754572Y-37015397D01*
X60754570Y-37015397D01*
X60379905Y-37115788D01*
X60017802Y-37254787D01*
X59672206Y-37430877D01*
X59346917Y-37642122D01*
X59045488Y-37886215D01*
X59045480Y-37886222D01*
X58771222Y-38160480D01*
X58771215Y-38160488D01*
X58527122Y-38461917D01*
X58315877Y-38787206D01*
X58139787Y-39132802D01*
X58000788Y-39494905D01*
X57900397Y-39869570D01*
X57900397Y-39869572D01*
X57839722Y-40252660D01*
X57819422Y-40639999D01*
X57819422Y-40640000D01*
X57150500Y-40640000D01*
X57150500Y-36319500D01*
X57170185Y-36252461D01*
X57222989Y-36206706D01*
X57274500Y-36195500D01*
X131955500Y-36195500D01*
X132022539Y-36215185D01*
G37*
%TD.AperFunction*%
%TD*%
M02*
