M48
; DRILL file {KiCad 7.0.9} date Fri Feb  9 01:40:11 2024
; FORMAT={-:-/ absolute / inch / decimal}
; #@! TF.CreationDate,2024-02-09T01:40:11+08:00
; #@! TF.GenerationSoftware,Kicad,Pcbnew,7.0.9
; #@! TF.FileFunction,Plated,1,2,PTH
FMAT,2
INCH
; #@! TA.AperFunction,Plated,PTH,ViaDrill
T1C0.0157
; #@! TA.AperFunction,Plated,PTH,ComponentDrill
T2C0.0394
; #@! TA.AperFunction,Plated,PTH,ComponentDrill
T3C0.1260
%
G90
G05
T1
X2.49Y-2.23
X2.565Y-2.54
X2.59Y-2.07
X2.64Y-2.52
X2.64Y-2.565
X2.64Y-2.78
X2.68Y-2.52
X2.72Y-2.01
X2.73Y-2.815
X2.75Y-1.905
X2.7707Y-3.0417
X2.7957Y-2.2267
X2.805Y-3.23
X2.8057Y-1.8217
X2.8207Y-3.0917
X2.85Y-2.815
X2.8557Y-1.6567
X2.8757Y-1.5367
X2.88Y-3.15
X2.9Y-3.22
X2.9Y-3.305
X2.91Y-2.78
X2.9657Y-1.8067
X2.9657Y-2.0867
X2.9757Y-1.7517
X3.0Y-2.53
X3.0Y-2.635
X3.015Y-2.73
X3.02Y-2.225
X3.0607Y-1.8917
X3.0657Y-1.9867
X3.0822Y-2.8252
X3.085Y-2.76
X3.1057Y-1.7467
X3.135Y-2.005
X3.14Y-2.53
X3.1557Y-3.0417
X3.1707Y-1.5317
X3.1857Y-1.6567
X3.205Y-2.79
X3.2057Y-3.0917
X3.23Y-3.265
X3.26Y-3.135
X3.285Y-2.53
X3.295Y-3.3
X3.315Y-1.72
X3.34Y-2.79
X3.405Y-2.81
X3.41Y-2.53
X3.445Y-2.23
X3.49Y-1.885
X3.505Y-2.255
X3.53Y-1.69
X3.5407Y-3.0417
X3.565Y-2.785
X3.585Y-3.26
X3.5907Y-3.0917
X3.625Y-2.23
X3.65Y-3.125
X3.66Y-2.835
X3.7Y-3.175
X3.7Y-3.345
X3.8422Y-2.8252
X3.865Y-1.55
X3.88Y-2.345
X3.8807Y-2.0017
X3.8807Y-2.1017
X3.8807Y-2.2017
X3.8807Y-2.3017
X3.9257Y-3.0417
X3.945Y-2.155
X3.945Y-2.255
X3.9757Y-3.0917
X4.0507Y-2.3667
X4.145Y-1.905
X4.165Y-2.94
X4.36Y-2.745
X4.435Y-2.905
X4.445Y-2.745
X4.48Y-2.26
X4.545Y-2.04
X4.7672Y-3.0402
X4.7672Y-3.1052
X4.805Y-2.33
X4.805Y-2.775
T2
X3.3Y-1.58
X3.4Y-1.58
X3.5Y-1.58
X3.6Y-1.58
X3.7Y-1.58
X3.8Y-1.58
X5.05Y-3.025
X5.05Y-3.125
T3
X2.4222Y-1.6
X2.4222Y-3.2602
X4.625Y-3.25
X5.025Y-1.6
X5.025Y-2.6
T0
M30
